<?xml version="1.0" encoding="UTF-8"?>
<svg version="1.1" xmlns="http://www.w3.org/2000/svg" width="455" height="509">
<path d="M0 0 C2.56512492 1.56689449 5.06415242 3.21766704 7.57421875 4.87109375 C9.49994892 5.97521361 11.4375653 7.05887053 13.38671875 8.12109375 C14.25941406 8.600625 15.13210937 9.08015625 16.03125 9.57421875 C18.50132242 10.83391774 20.984184 11.88529955 23.57421875 12.87109375 C23.57421875 13.53109375 23.57421875 14.19109375 23.57421875 14.87109375 C24.42242187 15.12117188 25.270625 15.37125 26.14453125 15.62890625 C29.84001114 16.96736024 33.08861668 18.74434784 36.44921875 20.74609375 C41.41056428 23.64556437 46.39270034 26.38396492 51.57421875 28.87109375 C51.57421875 29.53109375 51.57421875 30.19109375 51.57421875 30.87109375 C52.10015625 30.97164062 52.62609375 31.0721875 53.16796875 31.17578125 C62.07701117 33.7501474 70.63816193 39.4340429 78.5546875 44.14453125 C81.61421183 45.89396172 84.71749704 47.45513086 87.88671875 48.99609375 C98.36975833 54.15035183 108.44018203 60.06958666 118.57421875 65.87109375 C119.83457394 66.59125343 121.09498073 67.31132283 122.35546875 68.03125 C124.51448224 69.2653463 126.67333451 70.49972471 128.83203125 71.734375 C142.91271918 79.77768394 157.02741056 87.73691442 171.32958984 95.3815918 C176.75387942 98.29238046 182.07924092 101.314754 187.33447266 104.52148438 C189.57755227 105.87310244 191.84739763 107.16215656 194.13671875 108.43359375 C194.85988281 108.83707031 195.58304687 109.24054688 196.328125 109.65625 C197.90271991 110.50790047 199.49595652 111.32555179 201.1015625 112.1171875 C202.32552734 112.73787109 202.32552734 112.73787109 203.57421875 113.37109375 C204.31671875 113.73203125 205.05921875 114.09296875 205.82421875 114.46484375 C208.29847099 116.45308216 208.15355055 117.70717966 208.57421875 120.87109375 C208.73091735 124.14562029 208.748 127.41729685 208.76176453 130.69517517 C208.76967461 131.69160068 208.77758469 132.68802618 208.78573447 133.7146464 C208.8108183 137.05706404 208.82871457 140.39947913 208.84643555 143.74194336 C208.86252239 146.13685802 208.87890222 148.53177072 208.89555359 150.92668152 C209.03997518 172.7547364 209.11546455 194.58338736 209.17447186 216.41182613 C209.18250022 219.33013384 209.19066862 222.24844112 209.19897461 225.16674805 C209.20103221 225.89205668 209.20308981 226.61736532 209.20520977 227.364653 C209.23965556 239.12317072 209.3123385 250.88114478 209.39988222 262.63937407 C209.48904349 274.71486051 209.54039546 286.79006461 209.55577403 298.8658734 C209.56543194 305.64493081 209.59219628 312.42300654 209.66208458 319.20173454 C209.7259746 325.57558847 209.74292485 331.94783415 209.72358894 338.32196236 C209.72474501 340.66256665 209.74307736 343.00323409 209.77973175 345.34355164 C210.04304739 363.06819972 210.04304739 363.06819972 206.40030861 367.53943062 C203.7866569 369.14272367 201.51101736 370.03775756 198.57421875 370.87109375 C197.32416281 371.5418746 196.09177025 372.24746989 194.88671875 372.99609375 C193.18778495 373.95775439 191.48884528 374.91940469 189.78979492 375.88085938 C185.31073321 378.42607114 180.91720772 381.08796122 176.5625 383.83984375 C174.57421875 384.87109375 174.57421875 384.87109375 171.57421875 384.87109375 C171.57421875 385.53109375 171.57421875 386.19109375 171.57421875 386.87109375 C170.55328125 387.43054688 169.53234375 387.99 168.48046875 388.56640625 C151.59308484 397.86286663 135.00042618 407.66292498 118.39794922 417.45605469 C112.8669596 420.71308755 107.29481644 423.89422999 101.71484375 427.06640625 C98.91568892 428.67487582 96.14642764 430.32117609 93.38671875 431.99609375 C90.17775471 433.93699942 86.93882802 435.7809245 83.63671875 437.55859375 C77.38376739 440.92764082 71.25641266 444.50764255 65.12329102 448.08862305 C64.33494873 448.54793213 63.54660645 449.00724121 62.734375 449.48046875 C62.02933838 449.89264648 61.32430176 450.30482422 60.59790039 450.72949219 C55.02888085 453.87109375 55.02888085 453.87109375 51.57421875 453.87109375 C51.57421875 454.53109375 51.57421875 455.19109375 51.57421875 455.87109375 C50.14127377 456.71223546 48.7026747 457.54375062 47.26171875 458.37109375 C46.46121094 458.83515625 45.66070312 459.29921875 44.8359375 459.77734375 C42.57421875 460.87109375 42.57421875 460.87109375 39.57421875 460.87109375 C39.57421875 461.53109375 39.57421875 462.19109375 39.57421875 462.87109375 C38.50171875 463.38671875 37.42921875 463.90234375 36.32421875 464.43359375 C29.39177025 467.90590978 22.73155183 471.8866366 16.16015625 475.99609375 C15.59256592 476.35026367 15.02497559 476.70443359 14.44018555 477.06933594 C12.85006441 478.06573475 11.26472782 479.0697572 9.6796875 480.07421875 C3.53658438 483.62871867 -2.24509126 486.53143002 -9.42578125 484.87109375 C-16.79674348 481.41195157 -23.52761923 476.88765226 -30.234375 472.29296875 C-33.53435174 470.15180737 -37.00392081 468.35454443 -40.47265625 466.50390625 C-43.69122572 464.72432684 -46.80465849 462.81624846 -49.92578125 460.87109375 C-54.65369937 457.93346584 -59.42474045 455.17066313 -64.328125 452.5390625 C-71.40396421 448.72899523 -78.41051681 444.79123304 -85.42578125 440.87109375 C-86.78171387 440.1138501 -86.78171387 440.1138501 -88.16503906 439.34130859 C-100.8126948 432.26708515 -113.33062694 425.01591127 -125.72412109 417.50585938 C-130.84617154 414.40652359 -135.98012558 411.32698957 -141.11328125 408.24609375 C-142.7068042 407.28908569 -142.7068042 407.28908569 -144.33251953 406.31274414 C-151.10794627 402.24801292 -157.90516654 398.2231279 -164.72583008 394.23486328 C-168.95588879 391.7553361 -173.13680565 389.21016992 -177.30078125 386.62109375 C-181.9886713 383.71297337 -186.75023955 381.03475559 -191.61328125 378.43359375 C-195.80212539 376.10645812 -199.84384502 373.55442189 -203.89453125 370.99609375 C-208.64947392 368.13471232 -213.55389714 365.52848508 -218.42578125 362.87109375 C-218.42578125 282.35109375 -218.42578125 201.83109375 -218.42578125 118.87109375 C-213.80578125 116.56109375 -209.18578125 114.25109375 -204.42578125 111.87109375 C-200.70648184 109.76137511 -197.02478883 107.63653099 -193.36328125 105.43359375 C-192.42444092 104.87373779 -191.48560059 104.31388184 -190.51831055 103.73706055 C-178.34857117 96.50122498 -178.34857117 96.50122498 -166.42578125 88.87109375 C-165.43578125 88.87109375 -164.44578125 88.87109375 -163.42578125 88.87109375 C-163.42578125 88.21109375 -163.42578125 87.55109375 -163.42578125 86.87109375 C-162.75498535 86.51047852 -162.08418945 86.14986328 -161.39306641 85.77832031 C-154.77509018 82.197858 -148.26436564 78.47222506 -141.80078125 74.62109375 C-139.87639901 73.47900334 -137.95191873 72.3370781 -136.02734375 71.1953125 C-134.61243652 70.35492432 -134.61243652 70.35492432 -133.16894531 69.49755859 C-129.17803248 67.131284 -125.1770993 64.7822132 -121.17578125 62.43359375 C-109.48366915 55.56340172 -109.48366915 55.56340172 -97.98828125 48.37109375 C-91.61154706 44.2928458 -84.99207435 40.75231336 -78.30078125 37.22265625 C-71.55615986 33.63957614 -65.03198928 29.82664064 -58.5546875 25.78125 C-54.88919743 23.54351636 -51.14997682 21.49006425 -47.3515625 19.48828125 C-42.97190482 17.06748248 -38.70620533 14.46237666 -34.42578125 11.87109375 C-30.94749391 9.76546634 -27.46833967 7.66129271 -23.98828125 5.55859375 C-23.10462891 5.02169922 -22.22097656 4.48480469 -21.31054688 3.93164062 C-20.46298828 3.42052734 -19.61542969 2.90941406 -18.7421875 2.3828125 C-17.98365479 1.92350342 -17.22512207 1.46419434 -16.44360352 0.9909668 C-11.25489378 -1.88872002 -5.43692985 -2.53022983 0 0 Z M-10.61328125 38.62109375 C-15.16227226 41.173852 -19.74317544 43.57396637 -24.42578125 45.87109375 C-24.42578125 46.53109375 -24.42578125 47.19109375 -24.42578125 47.87109375 C-25.22757813 48.09539063 -26.029375 48.3196875 -26.85546875 48.55078125 C-31.40286418 50.23242201 -35.37554471 52.55083728 -39.55078125 54.99609375 C-41.43859967 56.08889141 -43.32663166 57.18132019 -45.21484375 58.2734375 C-46.72353027 59.14911377 -46.72353027 59.14911377 -48.26269531 60.04248047 C-51.50484542 61.91680158 -54.75648259 63.77350703 -58.01171875 65.625 C-70.24193337 72.5812836 -82.42489054 79.60938104 -94.55078125 86.74609375 C-107.07968787 94.11585786 -119.70950854 101.24733923 -132.5 108.15234375 C-133.56371826 108.72694336 -134.62743652 109.30154297 -135.72338867 109.89355469 C-137.79106334 111.0089672 -139.86013989 112.12178671 -141.9309082 113.23144531 C-147.44247288 116.19803352 -152.85563345 119.27248748 -158.19091797 122.54638672 C-161.51455837 124.5164624 -164.94567079 126.19548501 -168.42578125 127.87109375 C-168.42578125 128.53109375 -168.42578125 129.19109375 -168.42578125 129.87109375 C-168.97234375 129.97679687 -169.51890625 130.0825 -170.08203125 130.19140625 C-172.94834258 131.02263654 -175.31397605 132.30386066 -177.92578125 133.74609375 C-178.86421875 134.25914062 -179.80265625 134.7721875 -180.76953125 135.30078125 C-181.64609375 135.81898438 -182.52265625 136.3371875 -183.42578125 136.87109375 C-184.12911874 137.23149624 -184.83245623 137.59189873 -185.55710697 137.9632225 C-188.42560155 140.8918861 -188.00135123 144.08614583 -187.9808197 147.96734619 C-187.99199863 148.80209874 -188.00317755 149.63685129 -188.01469523 150.49689937 C-188.04713637 153.3044244 -188.05079315 156.11124575 -188.05444336 158.91894531 C-188.07131696 160.92772269 -188.08979308 162.93648716 -188.10975647 164.94523621 C-188.15800732 170.41023887 -188.17964708 175.87503122 -188.19360423 181.34021854 C-188.20310258 184.75366193 -188.21754961 188.16704884 -188.23361397 191.58046722 C-188.28862773 203.4864428 -188.3195931 215.3922473 -188.33178711 227.29833984 C-188.34389281 238.39998553 -188.41245929 249.50033931 -188.50651354 260.60156465 C-188.58441942 270.1286578 -188.62006367 279.65532045 -188.62343603 289.18272948 C-188.62632694 294.87489637 -188.64693485 300.56568042 -188.71107292 306.25751495 C-188.77016776 311.61307674 -188.77676469 316.96616674 -188.74313927 322.32192421 C-188.73978009 324.28636795 -188.75520429 326.25094798 -188.79087448 328.21507072 C-189.3636795 338.64301714 -189.3636795 338.64301714 -185.01291084 347.56272125 C-182.19729144 349.39138446 -179.55810621 350.68428019 -176.42578125 351.87109375 C-175.26304687 352.48339844 -174.1003125 353.09570312 -172.90234375 353.7265625 C-171.96132812 354.16613281 -171.0203125 354.60570312 -170.05078125 355.05859375 C-167.04540139 356.46407463 -164.61291623 357.71286833 -162.07421875 359.859375 C-159.68474518 361.67438811 -158.02738211 362.50509278 -155.26025391 363.49682617 C-154.54165192 363.75711105 -153.82304993 364.01739594 -153.08267212 364.28556824 C-152.53589813 364.47879166 -151.98912415 364.67201508 -151.42578125 364.87109375 C-151.42431469 364.13264347 -151.42284813 363.39419319 -151.42133713 362.63336563 C-151.38430054 344.67297301 -151.32532781 326.7127754 -151.24187851 308.75253677 C-151.20205325 300.06711768 -151.16967853 291.38178964 -151.15478516 282.69628906 C-151.14178665 275.12681955 -151.1148683 267.55755012 -151.07116818 259.98819327 C-151.04851258 255.97947866 -151.032873 251.97101119 -151.0338974 247.96222687 C-151.03464162 244.18969913 -151.01678791 240.41771854 -150.98461342 236.64533234 C-150.97608837 235.26023859 -150.97438216 233.87508365 -150.97997856 232.48997498 C-150.98659961 230.5995947 -150.96637041 228.70917708 -150.94476318 226.81890869 C-150.93923243 225.23158117 -150.93923243 225.23158117 -150.93358994 223.61218643 C-150.29652889 220.17340441 -149.10239028 219.04966864 -146.42578125 216.87109375 C-144.6080698 215.68809581 -142.74969135 214.56614795 -140.86328125 213.49609375 C-139.26806641 212.58730469 -139.26806641 212.58730469 -137.640625 211.66015625 C-133.840697 209.54549401 -130.02315454 207.46537327 -126.19921875 205.39453125 C-117.94073558 200.85818134 -109.89923457 195.97194823 -101.921875 190.9609375 C-99.11423232 189.24289118 -96.24041451 187.67222899 -93.34375 186.109375 C-86.89358821 182.61642661 -80.59907049 178.87922869 -74.30078125 175.12109375 C-72.49074009 174.04416227 -70.68027832 172.96794019 -68.86981201 171.89172363 C-67.6802607 171.18451902 -66.49084646 170.47708381 -65.30157471 169.76940918 C-60.85163856 167.1217565 -56.39225252 164.49072499 -51.92578125 161.87109375 C-44.43537569 157.47340829 -36.96108326 153.04859759 -29.48828125 148.62109375 C-28.91287598 148.28029785 -28.3374707 147.93950195 -27.74462891 147.58837891 C-23.96979819 145.35244282 -20.19709908 143.1129493 -16.42578125 140.87109375 C-15.43433105 140.28263672 -14.44288086 139.69417969 -13.42138672 139.08789062 C-12.51404785 138.54712891 -11.60670898 138.00636719 -10.671875 137.44921875 C-9.87322021 136.97387695 -9.07456543 136.49853516 -8.25170898 136.00878906 C-6.47927407 134.99998898 -6.47927407 134.99998898 -5.42578125 133.87109375 C1.32062837 134.04064637 5.7765529 137.07689074 11.32421875 140.68359375 C12.23945313 141.26455811 13.1546875 141.84552246 14.09765625 142.4440918 C15.99606549 143.65037267 17.89123474 144.86176699 19.78320312 146.078125 C23.23350487 148.29462395 26.70136436 150.48248084 30.17089844 152.66870117 C32.54702748 154.16645419 34.92007989 155.66899551 37.29296875 157.171875 C41.86720801 160.06293087 46.47535721 162.89481607 51.09375 165.71484375 C53.92343862 167.45514064 56.72457192 169.23793111 59.5234375 171.02734375 C60.38839844 171.5790625 61.25335938 172.13078125 62.14453125 172.69921875 C63.86703158 173.79956225 65.58715667 174.90363434 67.3046875 176.01171875 C68.4803125 176.76195312 68.4803125 176.76195312 69.6796875 177.52734375 C70.38246826 177.97916016 71.08524902 178.43097656 71.80932617 178.89648438 C73.52999799 180.0322305 73.52999799 180.0322305 75.57421875 179.87109375 C75.57421875 180.53109375 75.57421875 181.19109375 75.57421875 181.87109375 C76.21746094 182.21140625 76.86070312 182.55171875 77.5234375 182.90234375 C87.10621545 188.04232165 96.29231126 193.7631817 105.44921875 199.62109375 C112.0893689 204.51105905 112.0893689 204.51105905 119.57421875 206.87109375 C119.57421875 207.53109375 119.57421875 208.19109375 119.57421875 208.87109375 C120.25226563 209.22300781 120.9303125 209.57492188 121.62890625 209.9375 C122.55960937 210.43121094 123.4903125 210.92492187 124.44921875 211.43359375 C125.35414063 211.90925781 126.2590625 212.38492188 127.19140625 212.875 C128.30773437 213.53371094 129.4240625 214.19242188 130.57421875 214.87109375 C131.39087446 215.30684534 132.20753017 215.74259693 133.04893303 216.19155312 C140.00605173 220.33182636 140.00605173 220.33182636 141.49939346 224.37755966 C141.84582444 227.42795689 141.87756223 230.3423239 141.80126953 233.41162109 C141.81248337 234.55576477 141.8236972 235.69990845 141.83525085 236.87872314 C141.86053536 240.6563459 141.81532647 244.42965664 141.76953125 248.20703125 C141.77332268 250.84674034 141.78151896 253.48644644 141.79391479 256.12612915 C141.81581818 262.37122596 141.78700961 268.6150117 141.73979175 274.85992682 C141.68895314 281.90185266 141.69400614 288.94336761 141.70421243 295.98542857 C141.71916412 307.0027011 141.69961719 318.01946356 141.64111328 329.03662109 C141.63557497 330.17022253 141.63003666 331.30382397 141.62433052 332.47177696 C141.60010473 337.3540978 141.57189426 342.23626561 141.5302124 347.11846924 C141.52112787 348.6331778 141.51218351 350.14788721 141.50341797 351.66259766 C141.49301483 352.90957428 141.48261169 354.1565509 141.47189331 355.4413147 C141.57760195 358.98449317 142.00600088 362.37462412 142.57421875 365.87109375 C143.16589844 365.47277344 143.75757813 365.07445312 144.3671875 364.6640625 C151.17892463 360.0969761 151.17892463 360.0969761 154.63671875 358.12109375 C155.27609375 357.70859375 155.91546875 357.29609375 156.57421875 356.87109375 C156.57421875 356.21109375 156.57421875 355.55109375 156.57421875 354.87109375 C157.15171875 354.76667969 157.72921875 354.66226562 158.32421875 354.5546875 C160.92276492 353.76519865 162.45858995 352.62361754 164.57421875 350.93359375 C167.14824846 348.88744123 169.58506095 347.25224479 172.57421875 345.87109375 C172.57421875 345.21109375 172.57421875 344.55109375 172.57421875 343.87109375 C173.37859375 343.72671875 174.18296875 343.58234375 175.01171875 343.43359375 C177.49525581 343.12974126 177.49525581 343.12974126 178.57421875 341.87109375 C178.68976532 339.25249902 178.73984202 336.65962763 178.74830627 334.03985596 C178.75480523 333.20948468 178.76130418 332.3791134 178.76800007 331.52357936 C178.78850741 328.71917986 178.80164769 325.91479501 178.81469727 323.11035156 C178.82750159 321.1084879 178.8406369 319.10662632 178.8540802 317.10476685 C178.97004328 298.82117179 179.02661103 280.53702621 179.07084751 262.25313187 C179.10411384 248.72859052 179.16370782 235.20471751 179.25835854 221.68046308 C179.32260103 212.18151376 179.3563709 202.68274703 179.36759704 193.18358874 C179.37517215 187.50509366 179.39647629 181.82740505 179.45062447 176.14914703 C179.50096331 170.80716362 179.51369596 165.46641617 179.49737358 160.12423325 C179.49797868 158.16218321 179.51232302 156.20008275 179.5413208 154.23824692 C179.57883147 151.56074508 179.56711867 148.88781867 179.54298401 146.21026611 C179.56560462 145.43175899 179.58822523 144.65325186 179.61153132 143.85115361 C179.63785299 141.3675739 179.63785299 141.3675739 178.57421875 137.87109375 C176.14193476 135.68027313 173.50330392 134.29539521 170.57421875 132.87109375 C169.41704578 132.20361557 168.26439421 131.52821561 167.1171875 130.84375 C164.18714258 129.17577332 161.25580605 127.51036829 158.31835938 125.85546875 C156.67649224 124.92881586 155.03925571 123.99397201 153.40234375 123.05859375 C151.97148438 122.25421875 151.97148438 122.25421875 150.51171875 121.43359375 C149.25681641 120.72396484 149.25681641 120.72396484 147.9765625 120 C145.49921642 118.83584875 143.27043294 118.28922322 140.57421875 117.87109375 C140.24421875 116.88109375 139.91421875 115.89109375 139.57421875 114.87109375 C137.58847673 113.62762547 137.58847673 113.62762547 135.19921875 112.68359375 C134.40773438 112.33941406 133.61625 111.99523437 132.80078125 111.640625 C130.49427902 110.70776629 130.49427902 110.70776629 127.57421875 110.87109375 C127.57421875 110.21109375 127.57421875 109.55109375 127.57421875 108.87109375 C127.05851318 108.60594971 126.54280762 108.34080566 126.01147461 108.06762695 C109.8986958 99.76077526 94.12663386 90.92211212 78.40234375 81.90625 C76.70970478 80.9360769 75.01699653 79.96602464 73.32421875 78.99609375 C72.48624756 78.51567627 71.64827637 78.03525879 70.78491211 77.5402832 C62.85041117 73.00383955 54.86028499 68.56913369 46.86569214 64.13989258 C39.47213843 60.04351816 32.09815053 55.921498 24.7734375 51.703125 C22.34510787 50.31254307 19.9111334 48.93581919 17.46875 47.5703125 C16.76282715 47.17561768 16.0569043 46.78092285 15.32958984 46.37426758 C13.93302371 45.59372059 12.53622208 44.81359478 11.13916016 44.03393555 C7.61068646 42.05423936 4.15630857 40.01351998 0.76171875 37.80859375 C-4.09840777 34.8543992 -5.96085193 35.97006209 -10.61328125 38.62109375 Z M-8.63671875 174.9765625 C-9.45760986 175.45915527 -10.27850098 175.94174805 -11.12426758 176.43896484 C-12.00751709 176.97344238 -12.8907666 177.50791992 -13.80078125 178.05859375 C-15.70709887 179.18178531 -17.61469082 180.30281636 -19.5234375 181.421875 C-20.50328613 181.9988916 -21.48313477 182.5759082 -22.49267578 183.17041016 C-27.02085282 185.79595379 -31.62789581 188.26875323 -36.23828125 190.74609375 C-45.17159949 195.57346931 -53.9538325 200.63051274 -62.70581055 205.77832031 C-69.65038686 209.85726962 -76.64525883 213.82687995 -83.71972656 217.67626953 C-87.76767309 219.89142292 -91.59407832 222.29185881 -95.42578125 224.87109375 C-97.07918717 225.81146837 -98.74599032 226.72870482 -100.42578125 227.62109375 C-104.92663491 230.03459499 -109.37170434 232.53258511 -113.80078125 235.07421875 C-114.44144531 235.44111816 -115.08210938 235.80801758 -115.7421875 236.18603516 C-117.30374175 237.08043284 -118.86481231 237.97567492 -120.42578125 238.87109375 C-120.65944546 257.1513255 -120.83575338 275.43116946 -120.94390297 293.7125721 C-120.99545526 302.20114198 -121.0657275 310.68878372 -121.18017578 319.17675781 C-121.27988949 326.57548352 -121.34437207 333.97353714 -121.3666662 341.3729161 C-121.3796983 345.29081994 -121.41028628 349.20680123 -121.48308182 353.12408829 C-121.55108369 356.81338749 -121.57187722 360.49997774 -121.55685806 364.18984413 C-121.56091163 366.18575785 -121.61467243 368.18137762 -121.66998291 370.17652893 C-121.62957684 373.68799381 -121.51261494 376.53035987 -120.42578125 379.87109375 C-117.42024719 382.75958506 -114.25437832 384.30508567 -110.42578125 385.87109375 C-109.4406958 386.42579346 -108.45561035 386.98049316 -107.44067383 387.55200195 C-106.63782959 387.98343506 -105.83498535 388.41486816 -105.0078125 388.859375 C-104.09209473 389.3538916 -103.17637695 389.8484082 -102.23291016 390.35791016 C-101.30655762 390.85726074 -100.38020508 391.35661133 -99.42578125 391.87109375 C-97.53314483 392.90495251 -95.6412191 393.94011333 -93.75 394.9765625 C-92.81994141 395.48509766 -91.88988281 395.99363281 -90.93164062 396.51757812 C-89.0327654 397.55584046 -87.13433668 398.5949198 -85.23632812 399.63476562 C-84.31271484 400.13943359 -83.38910156 400.64410156 -82.4375 401.1640625 C-81.61725342 401.61289795 -80.79700684 402.0617334 -79.9519043 402.52416992 C-77.13695391 404.02509592 -74.27909155 405.4444386 -71.42578125 406.87109375 C-71.09578125 358.36109375 -70.76578125 309.85109375 -70.42578125 259.87109375 C-66.79578125 257.89109375 -63.16578125 255.91109375 -59.42578125 253.87109375 C-57.55373931 252.75038375 -55.69260405 251.61065188 -53.85546875 250.43359375 C-52.93894531 249.84835937 -52.02242188 249.263125 -51.078125 248.66015625 C-50.16160156 248.06976563 -49.24507813 247.479375 -48.30078125 246.87109375 C-46.91439453 245.98550781 -46.91439453 245.98550781 -45.5 245.08203125 C-40.40383943 241.81876341 -35.34595493 238.50529409 -30.32958984 235.12060547 C-28.1101039 233.66390772 -25.82507347 232.34860971 -23.4921875 231.08203125 C-21.77016296 230.07290534 -20.10308116 228.97075387 -18.453125 227.84765625 C-17.63086426 227.30020752 -17.63086426 227.30020752 -16.79199219 226.74169922 C-15.18499417 225.66896494 -13.59211386 224.57517188 -12 223.48046875 C-7.30512255 221.36649114 -3.4939276 220.94320134 1.57421875 221.87109375 C4.4460503 223.20074234 6.67957601 225.00794334 9.07421875 227.05859375 C10.44749565 228.16100408 11.82256822 229.26118043 13.19921875 230.359375 C13.90820312 230.93510254 14.6171875 231.51083008 15.34765625 232.10400391 C19.15442082 235.12520587 23.1174275 237.92609882 27.07421875 240.74609375 C40.46924922 250.34379297 40.46924922 250.34379297 46.26171875 255.05859375 C48.55414936 256.93470196 48.55414936 256.93470196 51.19921875 258.43359375 C53.57421875 259.87109375 53.57421875 259.87109375 55.19921875 261.55859375 C56.61908597 263.21633162 56.61908597 263.21633162 59.57421875 262.87109375 C59.57421875 263.53109375 59.57421875 264.19109375 59.57421875 264.87109375 C60.89421875 264.87109375 62.21421875 264.87109375 63.57421875 264.87109375 C63.90421875 311.40109375 64.23421875 357.93109375 64.57421875 405.87109375 C71.22549108 402.24312702 76.92753569 399.03874835 82.94921875 394.70947266 C87.85123123 391.27642262 92.97987227 388.19573726 98.07421875 385.05859375 C100.21117364 383.7420769 102.34666796 382.42318537 104.48046875 381.1015625 C105.41181641 380.52817139 106.34316406 379.95478027 107.30273438 379.36401367 C109.6478163 377.9325204 109.6478163 377.9325204 111.57421875 375.87109375 C111.89892879 373.43098492 111.89892879 373.43098492 111.87528992 370.5458374 C111.89892357 368.85085365 111.89892357 368.85085365 111.92303467 367.12162781 C111.93345795 365.25302849 111.93345795 365.25302849 111.9440918 363.34667969 C111.96621483 361.3856002 111.96621483 361.3856002 111.98878479 359.38490295 C112.03606215 355.04182485 112.06171798 350.69872678 112.0859375 346.35546875 C112.09534448 344.86044511 112.1048389 343.36542201 112.11441994 341.87039948 C112.1529216 335.65104678 112.18613348 329.43170773 112.20479107 323.2122612 C112.23159442 314.29884126 112.28912423 305.38687367 112.39055604 296.47397971 C112.45943428 290.20722543 112.49375748 283.94085705 112.50235587 277.673733 C112.50835902 273.93045254 112.52931695 270.1886653 112.58691978 266.44579315 C112.65025168 262.26735773 112.64207779 258.09197647 112.62768555 253.91308594 C112.67150864 252.056632 112.67150864 252.056632 112.71621704 250.16267395 C112.75757461 243.92897095 112.75757461 243.92897095 109.64002419 238.82161713 C107.34332483 237.26719942 105.08001634 236.05140105 102.57421875 234.87109375 C101.237445 234.06892723 99.90761436 233.25489109 98.58984375 232.421875 C97.33601921 231.67345809 96.08082692 230.9273274 94.82421875 230.18359375 C93.87482422 229.61801758 93.87482422 229.61801758 92.90625 229.04101562 C91.68546106 228.31387211 90.46351723 227.58866277 89.24023438 226.86572266 C87.73015601 225.96418994 86.23702284 225.03442283 84.74609375 224.1015625 C82.70023244 222.70678255 82.70023244 222.70678255 80.57421875 222.87109375 C80.57421875 222.21109375 80.57421875 221.55109375 80.57421875 220.87109375 C79.63328369 220.36715088 79.63328369 220.36715088 78.67333984 219.85302734 C71.38268553 215.9157313 64.21002945 211.79372944 57.06835938 207.59472656 C55.20968015 206.50224269 53.34910246 205.41304929 51.48828125 204.32421875 C45.64281792 200.89717137 39.83032179 197.42906324 34.0703125 193.859375 C27.7343731 189.94145274 21.31649401 186.18411358 14.8503418 182.48657227 C12.97868343 181.41467444 11.11144395 180.33532214 9.24414062 179.25585938 C8.04062506 178.56595166 6.83685864 177.87648132 5.6328125 177.1875 C4.56345459 176.57334229 3.49409668 175.95918457 2.39233398 175.32641602 C-2.21464704 172.94729327 -4.09441184 172.24924372 -8.63671875 174.9765625 Z M-4.42578125 258.87109375 C-7.05563689 260.30691732 -9.49608083 261.78678681 -11.98828125 263.43359375 C-13.43451528 264.36387314 -14.88112939 265.29356191 -16.328125 266.22265625 C-17.38169189 266.90569824 -17.38169189 266.90569824 -18.45654297 267.60253906 C-24.27271653 271.34923356 -30.17084179 274.90822769 -36.42578125 277.87109375 C-36.42578125 278.53109375 -36.42578125 279.19109375 -36.42578125 279.87109375 C-37.74578125 280.20109375 -39.06578125 280.53109375 -40.42578125 280.87109375 C-41.37239705 284.86324723 -41.55245786 288.58031296 -41.55517578 292.6784668 C-41.55687428 293.34792359 -41.55857279 294.01738039 -41.56032276 294.70712376 C-41.56459964 296.93237692 -41.56164276 299.15755824 -41.55859375 301.3828125 C-41.56007693 302.96750932 -41.5619211 304.55220584 -41.56410217 306.13690186 C-41.57678505 320.17239248 -41.52185688 334.20805259 -41.46131897 348.24339294 C-41.42522106 357.27129488 -41.42776267 366.2963204 -41.52393341 375.32383251 C-41.58830792 381.4081489 -41.60435796 387.49136839 -41.60076904 393.57608032 C-41.60906979 396.05227352 -41.63643008 398.52848055 -41.68341064 401.00424194 C-42.54490341 413.64712917 -42.54490341 413.64712917 -38.03979492 424.8269043 C-35.19558633 426.66443485 -32.61284607 427.76928796 -29.42578125 428.87109375 C-27.22314453 430.34521484 -27.22314453 430.34521484 -25.36328125 431.80859375 C-22.75118749 434.06263722 -22.75118749 434.06263722 -20.42578125 433.87109375 C-20.42578125 434.53109375 -20.42578125 435.19109375 -20.42578125 435.87109375 C-16.48749589 438.18773219 -12.7334294 440.30467624 -8.42578125 441.87109375 C-8.42578125 442.53109375 -8.42578125 443.19109375 -8.42578125 443.87109375 C-7.46671875 444.05671875 -7.46671875 444.05671875 -6.48828125 444.24609375 C-5.80765625 444.45234375 -5.12703125 444.65859375 -4.42578125 444.87109375 C-4.09578125 445.53109375 -3.76578125 446.19109375 -3.42578125 446.87109375 C-3.42578125 446.21109375 -3.42578125 445.55109375 -3.42578125 444.87109375 C-2.85988281 444.77828125 -2.29398438 444.68546875 -1.7109375 444.58984375 C1.13376516 443.69509967 2.84264679 442.26535283 5.13671875 440.37109375 C7.72753161 438.23902516 9.3675875 436.93997083 12.57421875 435.87109375 C12.90421875 435.21109375 13.23421875 434.55109375 13.57421875 433.87109375 C14.56421875 433.54109375 15.55421875 433.21109375 16.57421875 432.87109375 C16.57421875 432.21109375 16.57421875 431.55109375 16.57421875 430.87109375 C17.89421875 430.54109375 19.21421875 430.21109375 20.57421875 429.87109375 C20.57421875 429.21109375 20.57421875 428.55109375 20.57421875 427.87109375 C21.25484375 427.64421875 21.93546875 427.41734375 22.63671875 427.18359375 C23.60609375 426.75046875 24.57546875 426.31734375 25.57421875 425.87109375 C26.16313621 425.62118872 26.75205366 425.37128368 27.3588171 425.11380577 C29.58190863 423.90675838 30.97532347 422.84738699 32.57421875 420.87109375 C33.66771537 416.48773573 33.56106698 412.15376443 33.52758789 407.65478516 C33.54199315 406.29593133 33.55932633 404.93710586 33.57936096 403.57832336 C33.62404216 399.89402715 33.62406652 396.21100522 33.61329198 392.52650118 C33.60805707 389.44748914 33.62392727 386.36872848 33.63954157 383.28976285 C33.67576588 376.02337801 33.67509967 368.75762941 33.65161133 361.49121094 C33.62805688 354.00312013 33.6667296 346.51717752 33.73614794 339.02941954 C33.79359819 332.59344881 33.81216644 326.15815692 33.79979604 319.72194231 C33.7928086 315.88093387 33.80040873 312.04139274 33.84547615 308.20061111 C33.88619827 304.58635146 33.87818493 300.97536049 33.83334923 297.36118126 C33.82096123 295.40991915 33.8577447 293.45853702 33.8961792 291.50761414 C33.82722049 284.92769502 33.82722049 284.92769502 30.41201591 279.56708908 C27.86857215 277.75229705 25.36314902 276.273247 22.57421875 274.87109375 C21.17807844 274.10081656 19.78218442 273.33009247 18.38671875 272.55859375 C17.66871094 272.17574219 16.95070312 271.79289062 16.2109375 271.3984375 C11.90408176 268.90365144 7.81823416 266.0734702 3.71411133 263.26049805 C1.01750593 261.42649855 -1.31499406 259.90802281 -4.42578125 258.87109375 Z " fill="#E1B461" transform="translate(229.42578125,10.12890625)"/>
<path d="M0 0 C2 4 2 4 2 6 C2.66 5.34 3.32 4.68 4 4 C5.01365893 5.55367366 6.01042256 7.11837836 7 8.6875 C7.556875 9.55761719 8.11375 10.42773438 8.6875 11.32421875 C10.08325608 14.16973337 10.26993648 15.8788594 10 19 C10.66 19 11.32 19 12 19 C12 20.32 12 21.64 12 23 C11.34 23 10.68 23 10 23 C10 23.66 10 24.32 10 25 C10.66 25 11.32 25 12 25 C13.125 28.75 13.125 28.75 12 31 C12.66 31 13.32 31 14 31 C14 44.2 14 57.4 14 71 C13.34 71 12.68 71 12 71 C12.0825 72.19625 12.165 73.3925 12.25 74.625 C12.28970273 79.12728907 10.53704698 81.31718987 8 85 C8.12245809 87.79561167 8.12245809 87.79561167 9 90 C10.32 90 11.64 90 13 90 C13 88.02 13 86.04 13 84 C13.33 84 13.66 84 14 84 C14.1171893 87.35386761 14.18757584 90.70720149 14.25 94.0625 C14.30027344 95.47692383 14.30027344 95.47692383 14.3515625 96.91992188 C14.43917403 103.20604898 13.63693556 106.83812885 10 112 C11.32 112.66 12.64 113.32 14 114 C13.34 114.66 12.68 115.32 12 116 C11.01 115.505 11.01 115.505 10 115 C10.24169922 115.85078125 10.24169922 115.85078125 10.48828125 116.71875 C11.01017085 119.04534179 11.16711134 121.118605 11.1875 123.5 C11.20167969 124.2528125 11.21585937 125.005625 11.23046875 125.78125 C10.97417278 128.24864173 10.22845153 129.86356256 9 132 C9.66 132 10.32 132 11 132 C12.10844919 135.32534757 11.84454356 137.62182575 11 141 C9 140 9 140 8 137 C7.67 139.31 7.34 141.62 7 144 C8.65 144.33 10.3 144.66 12 145 C12 145.99 12 146.98 12 148 C11.01 148 10.02 148 9 148 C9.185625 148.78375 9.37125 149.5675 9.5625 150.375 C10 153 10 153 9 155 C8.01 155.33 7.02 155.66 6 156 C8.62113708 156 10.50935112 155.68707555 13 155 C13.33 155.66 13.66 156.32 14 157 C13.01 157 12.02 157 11 157 C11 157.66 11 158.32 11 159 C10.01 159 9.02 159 8 159 C8 159.66 8 160.32 8 161 C8.66 161.33 9.32 161.66 10 162 C9.67 162.99 9.34 163.98 9 165 C8.34 165 7.68 165 7 165 C7.495 168.465 7.495 168.465 8 172 C7.01 172.33 6.02 172.66 5 173 C4.690625 174.134375 4.38125 175.26875 4.0625 176.4375 C3 180 3 180 0.875 181.4375 C0.25625 181.623125 -0.3625 181.80875 -1 182 C-1 181.34 -1 180.68 -1 180 C-2.65 180.33 -4.3 180.66 -6 181 C-5.67 179.68 -5.34 178.36 -5 177 C-6.32 177 -7.64 177 -9 177 C-9.495 176.01 -9.495 176.01 -10 175 C-10.33 176.32 -10.66 177.64 -11 179 C-12.98 178.67 -14.96 178.34 -17 178 C-17.66 179.65 -18.32 181.3 -19 183 C-18.34 183 -17.68 183 -17 183 C-16.505 181.02 -16.505 181.02 -16 179 C-16 180.32 -16 181.64 -16 183 C-15.34 183 -14.68 183 -14 183 C-14 183.66 -14 184.32 -14 185 C-13.21625 184.79375 -12.4325 184.5875 -11.625 184.375 C-10.325625 184.189375 -10.325625 184.189375 -9 184 C-8.34 184.66 -7.68 185.32 -7 186 C-8.32 186 -9.64 186 -11 186 C-11.33 186.99 -11.66 187.98 -12 189 C-12.99 188.34 -13.98 187.68 -15 187 C-15.99 188.98 -16.98 190.96 -18 193 C-19.65 193 -21.3 193 -23 193 C-23 192.01 -23 191.02 -23 190 C-21.02 189.67 -19.04 189.34 -17 189 C-17 188.01 -17 187.02 -17 186 C-17.99 185.67 -18.98 185.34 -20 185 C-20 184.34 -20 183.68 -20 183 C-20.66 183 -21.32 183 -22 183 C-22 183.99 -22 184.98 -22 186 C-22.66 186 -23.32 186 -24 186 C-24.33 185.34 -24.66 184.68 -25 184 C-25.66 184 -26.32 184 -27 184 C-26.67 181.69 -26.34 179.38 -26 177 C-25.01 176.67 -24.02 176.34 -23 176 C-22.67 176.99 -22.34 177.98 -22 179 C-21.34 179.33 -20.68 179.66 -20 180 C-20 179.01 -20 178.02 -20 177 C-19.34 177 -18.68 177 -18 177 C-18 176.34 -18 175.68 -18 175 C-18.66 174.67 -19.32 174.34 -20 174 C-19.505 173.01 -19.505 173.01 -19 172 C-18.01 172 -17.02 172 -16 172 C-13.31232422 169.56249975 -13.31232422 169.56249975 -11 167 C-10.67 167.99 -10.34 168.98 -10 170 C-10 168.68 -10 167.36 -10 166 C-9.01 166 -8.02 166 -7 166 C-7 167.65 -7 169.3 -7 171 C-4.3333581 172.33332095 -2.83319697 171.67102033 0 171 C-0.02320313 170.08476562 -0.04640625 169.16953125 -0.0703125 168.2265625 C-0.08835937 167.03804687 -0.10640625 165.84953125 -0.125 164.625 C-0.14820313 163.44164062 -0.17140625 162.25828125 -0.1953125 161.0390625 C0 158 0 158 2 156 C2 157.32 2 158.64 2 160 C2.66 159.67 3.32 159.34 4 159 C3.67 157.35 3.34 155.7 3 154 C2.34 154 1.68 154 1 154 C0.09586327 150.16275828 -0.10576898 146.62497726 -0.0625 142.6875 C-0.05347656 141.61886719 -0.04445313 140.55023438 -0.03515625 139.44921875 C-0.02355469 138.64097656 -0.01195312 137.83273437 0 137 C0.66 137.33 1.32 137.66 2 138 C2 138.99 2 139.98 2 141 C2.66 141 3.32 141 4 141 C3.39816251 138.97954558 2.72693904 136.97888961 2 135 C1.34 134.67 0.68 134.34 0 134 C0 130.04 0 126.08 0 122 C0.99 121.505 0.99 121.505 2 121 C2 121.66 2 122.32 2 123 C2.66 123 3.32 123 4 123 C4 122.01 4 121.02 4 120 C2.68 119.67 1.36 119.34 0 119 C0.375 116.5625 0.375 116.5625 1 114 C1.99 113.505 1.99 113.505 3 113 C3.65555119 110.47266765 3.65555119 110.47266765 4 108 C4.66 108 5.32 108 6 108 C5.67 107.34 5.34 106.68 5 106 C4.360625 106.99 3.72125 107.98 3.0625 109 C2.381875 109.99 1.70125 110.98 1 112 C0.67 112 0.34 112 0 112 C0 106.39 0 100.78 0 95 C0.66 95.33 1.32 95.66 2 96 C2.33 96.99 2.66 97.98 3 99 C3.99 97.68 4.98 96.36 6 95 C6.433125 95.66 6.86625 96.32 7.3125 97 C8.1478125 97.99 8.1478125 97.99 9 99 C9.99 99 10.98 99 12 99 C12 98.34 12 97.68 12 97 C11.34 97 10.68 97 10 97 C9.67 96.01 9.34 95.02 9 94 C7.37667033 92.61423077 5.71275535 91.27358732 4 90 C4 90.99 4 91.98 4 93 C3.34 93 2.68 93 2 93 C2.33 90.69 2.66 88.38 3 86 C2.01 86 1.02 86 0 86 C0 83.69 0 81.38 0 79 C2 79 4 79 6 79 C5.6596875 77.8553125 5.6596875 77.8553125 5.3125 76.6875 C5.1578125 75.3571875 5.1578125 75.3571875 5 74 C6.4375 72.1875 6.4375 72.1875 8 71 C3.91927658 71.55144911 3.08669204 71.91330796 0 75 C0 66.75 0 58.5 0 50 C1.32 49.34 2.64 48.68 4 48 C4.33 48.66 4.66 49.32 5 50 C6.65 49.34 8.3 48.68 10 48 C9.67 47.01 9.34 46.02 9 45 C7.68 45 6.36 45 5 45 C5 43.35 5 41.7 5 40 C3.68 40 2.36 40 1 40 C1.33 41.32 1.66 42.64 2 44 C1.34 43.67 0.68 43.34 0 43 C0 38.71 0 34.42 0 30 C0.66 30 1.32 30 2 30 C2 32.31 2 34.62 2 37 C3.98 36.34 5.96 35.68 8 35 C6.68 35 5.36 35 4 35 C4 31.37 4 27.74 4 24 C3.01 24.33 2.02 24.66 1 25 C-0.4783226 22.04335481 -0.06032783 19.25770263 0 16 C1.98 16.33 3.96 16.66 6 17 C6.33 15.68 6.66 14.36 7 13 C4.21081851 11.89459074 4.21081851 11.89459074 2 12 C1.34 12.66 0.68 13.32 0 14 C0 9.38 0 4.76 0 0 Z " fill="#E8BB6B" transform="translate(416,196)"/>
<path d="M0 0 C3.875 0.875 3.875 0.875 5 2 C5.04063832 3.66617115 5.042721 5.33388095 5 7 C7.475 6.505 7.475 6.505 10 6 C10.495 6.99 10.495 6.99 11 8 C11.66 7.67 12.32 7.34 13 7 C13 8.98 13 10.96 13 13 C10.36 13.33 7.72 13.66 5 14 C4.67 15.98 4.34 17.96 4 20 C2.02 20.33 0.04 20.66 -2 21 C-2.495 22.485 -2.495 22.485 -3 24 C-4.9375 25.25 -4.9375 25.25 -7 26 C-7.66 25.67 -8.32 25.34 -9 25 C-9.495 26.485 -9.495 26.485 -10 28 C-11.77734375 29.421875 -11.77734375 29.421875 -13.9375 30.75 C-14.64777344 31.19859375 -15.35804688 31.6471875 -16.08984375 32.109375 C-16.72019531 32.40328125 -17.35054688 32.6971875 -18 33 C-20 32 -20 32 -21 31 C-21.33 31.99 -21.66 32.98 -22 34 C-22.99 34 -23.98 34 -25 34 C-25 34.99 -25 35.98 -25 37 C-25.99 37.33 -26.98 37.66 -28 38 C-28 37.34 -28 36.68 -28 36 C-28.99 36 -29.98 36 -31 36 C-31.33 37.65 -31.66 39.3 -32 41 C-32.33 40.01 -32.66 39.02 -33 38 C-33.99 38 -34.98 38 -36 38 C-35.67 39.32 -35.34 40.64 -35 42 C-35.99 42 -36.98 42 -38 42 C-38.33 42.99 -38.66 43.98 -39 45 C-41.64 45 -44.28 45 -47 45 C-47 44.34 -47 43.68 -47 43 C-47.99 43 -48.98 43 -50 43 C-50.495 45.475 -50.495 45.475 -51 48 C-50.01 48 -49.02 48 -48 48 C-48 48.66 -48 49.32 -48 50 C-49.98 50.99 -51.96 51.98 -54 53 C-54.33 52.34 -54.66 51.68 -55 51 C-55.66 50.773125 -56.32 50.54625 -57 50.3125 C-57.66 49.879375 -58.32 49.44625 -59 49 C-59.75 45.375 -59.75 45.375 -60 42 C-60.66 42 -61.32 42 -62 42 C-62 42.99 -62 43.98 -62 45 C-63.32 44.34 -64.64 43.68 -66 43 C-66 42.34 -66 41.68 -66 41 C-65.195625 40.525625 -64.39125 40.05125 -63.5625 39.5625 C-60.7081924 38.20016328 -60.7081924 38.20016328 -60 35 C-59.34 35 -58.68 35 -58 35 C-58 35.66 -58 36.32 -58 37 C-57.34 37 -56.68 37 -56 37 C-56 35.35 -56 33.7 -56 32 C-55.34 31.67 -54.68 31.34 -54 31 C-54 31.99 -54 32.98 -54 34 C-52.68 33.34 -51.36 32.68 -50 32 C-49.67 32.66 -49.34 33.32 -49 34 C-49.66 34.66 -50.32 35.32 -51 36 C-50.34 36 -49.68 36 -49 36 C-49 36.66 -49 37.32 -49 38 C-49.66 38 -50.32 38 -51 38 C-51 38.66 -51 39.32 -51 40 C-47.98352894 38.78379415 -47.98352894 38.78379415 -45 37 C-44.03955898 34.92309422 -44.03955898 34.92309422 -44 33 C-44.99 33 -45.98 33 -47 33 C-47 32.34 -47 31.68 -47 31 C-47.66 30.34 -48.32 29.68 -49 29 C-47.02 29.33 -45.04 29.66 -43 30 C-43 29.01 -43 28.02 -43 27 C-42.34 27 -41.68 27 -41 27 C-41 26.34 -41 25.68 -41 25 C-41.99 25.33 -42.98 25.66 -44 26 C-44 25.34 -44 24.68 -44 24 C-42.35 24 -40.7 24 -39 24 C-39 23.34 -39 22.68 -39 22 C-37.576875 21.9071875 -37.576875 21.9071875 -36.125 21.8125 C-35.09375 21.544375 -34.0625 21.27625 -33 21 C-31.54708727 18.53744315 -31.54708727 18.53744315 -31 16 C-29.68 16 -28.36 16 -27 16 C-27 15.01 -27 14.02 -27 13 C-24.525 13.495 -24.525 13.495 -22 14 C-21.67 12.68 -21.34 11.36 -21 10 C-20.34 10.33 -19.68 10.66 -19 11 C-19 10.34 -19 9.68 -19 9 C-16.8125 7.2734375 -16.8125 7.2734375 -14 5.375 C-12.6078125 4.42753906 -12.6078125 4.42753906 -11.1875 3.4609375 C-10.465625 2.97882813 -9.74375 2.49671875 -9 2 C-8.505 2.99 -8.505 2.99 -8 4 C-7.34 4 -6.68 4 -6 4 C-5.67 3.01 -5.34 2.02 -5 1 C-4.505 2.485 -4.505 2.485 -4 4 C-3.34 3.67 -2.68 3.34 -2 3 C-1.505 3.99 -1.505 3.99 -1 5 C-0.67 3.35 -0.34 1.7 0 0 Z " fill="#E9BC6B" transform="translate(350,394)"/>
<path d="M0 0 C-0.99 1.485 -0.99 1.485 -2 3 C0.97 3.495 0.97 3.495 4 4 C4.625 5.875 4.625 5.875 5 8 C4.34 8.66 3.68 9.32 3 10 C3.66 10 4.32 10 5 10 C5 12.97 5 15.94 5 19 C4.34 19 3.68 19 3 19 C3.04125 20.216875 3.0825 21.43375 3.125 22.6875 C3.13754508 26.21894127 2.59998217 28.80003566 1 32 C-0.65 32 -2.3 32 -4 32 C-3.67 32.99 -3.34 33.98 -3 35 C-3 35.66 -3 36.32 -3 37 C-2.54625 36.505 -2.0925 36.01 -1.625 35.5 C-0 34 -0 34 2 34 C2.33 33.01 2.66 32.02 3 31 C3.66 31 4.32 31 5 31 C5 33.31 5 35.62 5 38 C1.25 39.125 1.25 39.125 -1 38 C-0.67 39.32 -0.34 40.64 0 42 C1.65 42 3.3 42 5 42 C5.07347656 43.48113281 5.07347656 43.48113281 5.1484375 44.9921875 C5.22320312 46.27351563 5.29796875 47.55484375 5.375 48.875 C5.44460937 50.15117187 5.51421875 51.42734375 5.5859375 52.7421875 C5.67241106 56.08061699 5.67241106 56.08061699 8 58 C11.85934373 58.16492216 11.85934373 58.16492216 14.9375 57.25 C18 57 18 57 20.875 58.625 C23 61 23 61 23.3125 63.75 C23.209375 64.4925 23.10625 65.235 23 66 C22.34 66 21.68 66 21 66 C21 68.97 21 71.94 21 75 C16.69235185 73.43358249 12.93828536 71.31663844 9 69 C9 68.01 9 67.02 9 66 C7.02 65.67 5.04 65.34 3 65 C3 63.68 3 62.36 3 61 C2.34 61 1.68 61 1 61 C0.67 61.99 0.34 62.98 0 64 C-0.99 63.01 -1.98 62.02 -3 61 C-2.34 61 -1.68 61 -1 61 C-1 60.01 -1 59.02 -1 58 C-2.485 58.495 -2.485 58.495 -4 59 C-4 58.34 -4 57.68 -4 57 C-5.32 57 -6.64 57 -8 57 C-8 56.34 -8 55.68 -8 55 C-8.66 54.67 -9.32 54.34 -10 54 C-9.34 53.34 -8.68 52.68 -8 52 C-7.67 51.01 -7.34 50.02 -7 49 C-4.69 49 -2.38 49 0 49 C-0.66 48.34 -1.32 47.68 -2 47 C-2 46.01 -2 45.02 -2 44 C-4.47266765 44.34444881 -4.47266765 44.34444881 -7 45 C-7.33 45.66 -7.66 46.32 -8 47 C-8.66 47 -9.32 47 -10 47 C-10.20086443 43.28400809 -10.1519437 42.22791555 -8 39 C-8.66 38.34 -9.32 37.68 -10 37 C-9.70700977 35.32577014 -9.37309899 33.65821773 -9 32 C-9.33 31.34 -9.66 30.68 -10 30 C-9.01 30 -8.02 30 -7 30 C-7.33 28.35 -7.66 26.7 -8 25 C-7.34 25.33 -6.68 25.66 -6 26 C-6 26.99 -6 27.98 -6 29 C-5.01 29 -4.02 29 -3 29 C-3.33 28.01 -3.66 27.02 -4 26 C-4.66 25.67 -5.32 25.34 -6 25 C-6 24.34 -6 23.68 -6 23 C-4.68 23.33 -3.36 23.66 -2 24 C-2 23.34 -2 22.68 -2 22 C-4.64 22 -7.28 22 -10 22 C-10.10251672 16.87416389 -10.03590199 12.05002222 -9 7 C-6.03 7.495 -6.03 7.495 -3 8 C-3.66 7.01 -4.32 6.02 -5 5 C-5.99 5.495 -5.99 5.495 -7 6 C-6.625 3.0625 -6.625 3.0625 -6 0 C-3.50907189 -1.24546405 -2.58919267 -0.7767578 0 0 Z M4 59 C4.99 59.99 5.98 60.98 7 62 C7 61.01 7 60.02 7 59 C6.01 59 5.02 59 4 59 Z " fill="#E8BA6A" transform="translate(29,310)"/>
<path d="M0 0 C1 3 1 3 1 7 C-0.65 7 -2.3 7 -4 7 C-4.33 7.66 -4.66 8.32 -5 9 C-5.66 7.02 -6.32 5.04 -7 3 C-6.01 3 -5.02 3 -4 3 C-4 2.34 -4 1.68 -4 1 C-2.68 1.33 -1.36 1.66 0 2 C0 1.34 0 0.68 0 0 Z M-9 5 C-8.505 6.485 -8.505 6.485 -8 8 C-7.01 8.33 -6.02 8.66 -5 9 C-5 10.98 -5 12.96 -5 15 C-4.34 15 -3.68 15 -3 15 C-2.34 16.65 -1.68 18.3 -1 20 C-1.99 20 -2.98 20 -4 20 C-4 20.99 -4 21.98 -4 23 C-3.34 23.33 -2.68 23.66 -2 24 C-1.375 27.0625 -1.375 27.0625 -1 30 C-0.67 29.34 -0.34 28.68 0 28 C1.32 28 2.64 28 4 28 C4 28.99 4 29.98 4 31 C2.68 31.33 1.36 31.66 0 32 C0 32.66 0 33.32 0 34 C1.65 34 3.3 34 5 34 C4.505 35.485 4.505 35.485 4 37 C3.01 37.33 2.02 37.66 1 38 C0.34 38.66 -0.32 39.32 -1 40 C-4 39 -4 39 -6 37 C-6.33 39.31 -6.66 41.62 -7 44 C-8.32 43.34 -9.64 42.68 -11 42 C-11 41.34 -11 40.68 -11 40 C-12.32 39.34 -13.64 38.68 -15 38 C-15 37.34 -15 36.68 -15 36 C-15.66 36 -16.32 36 -17 36 C-16.2575 36.495 -16.2575 36.495 -15.5 37 C-13.11820439 40.17572747 -13.80831774 43.10246066 -14 47 C-14.99 46.67 -15.98 46.34 -17 46 C-16.67 46.99 -16.34 47.98 -16 49 C-20.95 51.475 -20.95 51.475 -26 54 C-26.66 53.01 -27.32 52.02 -28 51 C-28.99 51 -29.98 51 -31 51 C-31.33 51.66 -31.66 52.32 -32 53 C-32.66 53 -33.32 53 -34 53 C-34 52.34 -34 51.68 -34 51 C-35.32 51.66 -36.64 52.32 -38 53 C-36.68 53.33 -35.36 53.66 -34 54 C-34 54.66 -34 55.32 -34 56 C-34.99 56 -35.98 56 -37 56 C-37.33 56.99 -37.66 57.98 -38 59 C-39.9375 58.625 -39.9375 58.625 -42 58 C-42.33 57.34 -42.66 56.68 -43 56 C-43.61875 56.20625 -44.2375 56.4125 -44.875 56.625 C-45.57625 56.74875 -46.2775 56.8725 -47 57 C-47.66 56.34 -48.32 55.68 -49 55 C-48.67 54.01 -48.34 53.02 -48 52 C-47.01 52 -46.02 52 -45 52 C-45.66 50.68 -46.32 49.36 -47 48 C-45 46 -45 46 -42 45 C-42 44.34 -42 43.68 -42 43 C-41.34 43 -40.68 43 -40 43 C-40 43.99 -40 44.98 -40 46 C-39.34 46 -38.68 46 -38 46 C-38 46.99 -38 47.98 -38 49 C-37.34 49 -36.68 49 -36 49 C-36 47.35 -36 45.7 -36 44 C-36.495 44.495 -36.495 44.495 -37 45 C-37.66 44.34 -38.32 43.68 -39 43 C-38 40 -38 40 -36.07421875 38.83203125 C-35.28660156 38.49558594 -34.49898437 38.15914063 -33.6875 37.8125 C-32.90761719 37.46832031 -32.12773437 37.12414062 -31.32421875 36.76953125 C-29 36 -29 36 -25 36 C-24.67 35.01 -24.34 34.02 -24 33 C-22.9275 33.0825 -21.855 33.165 -20.75 33.25 C-16.95990735 33.36237217 -16.95990735 33.36237217 -14.5625 31 C-14.046875 30.34 -13.53125 29.68 -13 29 C-13 30.32 -13 31.64 -13 33 C-10.33694808 31.36119882 -8.33305821 30.11607584 -7.41015625 27.0234375 C-6.82453527 22.8955612 -6.82453527 22.8955612 -8 19 C-8.99 18.67 -9.98 18.34 -11 18 C-10.505 19.98 -10.505 19.98 -10 22 C-10.66 22 -11.32 22 -12 22 C-12 20.02 -12 18.04 -12 16 C-10.68 15.67 -9.36 15.34 -8 15 C-8 13.68 -8 12.36 -8 11 C-8.66 10.67 -9.32 10.34 -10 10 C-9.67 8.35 -9.34 6.7 -9 5 Z " fill="#E9BB6A" transform="translate(285,414)"/>
<path d="M0 0 C0 0.66 0 1.32 0 2 C0.99 2.33 1.98 2.66 3 3 C3.33 2.34 3.66 1.68 4 1 C4.99 1 5.98 1 7 1 C7.08706892 4.27066566 7.14041241 7.54103365 7.1875 10.8125 C7.22520508 12.2056543 7.22520508 12.2056543 7.26367188 13.62695312 C7.27817383 14.9659668 7.27817383 14.9659668 7.29296875 16.33203125 C7.31653442 17.56530151 7.31653442 17.56530151 7.34057617 18.82348633 C6.92566921 21.47502434 6.04470249 22.33263592 4 24 C3.67 22.68 3.34 21.36 3 20 C2.34 20 1.68 20 1 20 C0.67 21.98 0.34 23.96 0 26 C0.99 25.67 1.98 25.34 3 25 C3.6875 26.6875 3.6875 26.6875 4 29 C2.5625 31.75 2.5625 31.75 1 34 C1.66 34.33 2.32 34.66 3 35 C0.525 35.495 0.525 35.495 -2 36 C-2 37.32 -2 38.64 -2 40 C-1.34 40 -0.68 40 0 40 C0.33 40.66 0.66 41.32 1 42 C1.2475 41.21625 1.495 40.4325 1.75 39.625 C3.18650005 36.6083499 4.04720831 36.28434435 7 35 C7.0810206 37.10353495 7.13919907 39.20795952 7.1875 41.3125 C7.22230469 42.48425781 7.25710938 43.65601563 7.29296875 44.86328125 C7 48 7 48 5.48828125 49.91796875 C4.75158203 50.45357422 4.75158203 50.45357422 4 51 C3.67 50.34 3.34 49.68 3 49 C3 51.83967231 3.40267181 54.23735711 4 57 C2.02 57.495 2.02 57.495 0 58 C0 57.01 0 56.02 0 55 C-1.32 55 -2.64 55 -4 55 C-5.75 53.875 -5.75 53.875 -7 52 C-7.1875 48.8125 -7.1875 48.8125 -7 46 C-6.34 46 -5.68 46 -5 46 C-5.33 45.505 -5.66 45.01 -6 44.5 C-7.48256965 40.79357588 -7.32168896 37.98894311 -7 34 C-6.01 33.34 -5.02 32.68 -4 32 C-3.01 32.33 -2.02 32.66 -1 33 C-1 32.01 -1 31.02 -1 30 C-2.98 29.67 -4.96 29.34 -7 29 C-6.34 27.02 -5.68 25.04 -5 23 C-5.66 23 -6.32 23 -7 23 C-6.67 21.02 -6.34 19.04 -6 17 C-5.01 17 -4.02 17 -3 17 C-3 16.34 -3 15.68 -3 15 C-3.99 14.67 -4.98 14.34 -6 14 C-6.02708567 12.39592672 -6.04643483 10.7917215 -6.0625 9.1875 C-6.07410156 8.29417969 -6.08570313 7.40085937 -6.09765625 6.48046875 C-6 4 -6 4 -5 1 C-3 0 -3 0 0 0 Z " fill="#E7BC6C" transform="translate(356,270)"/>
<path d="M0 0 C0.66 0.33 1.32 0.66 2 1 C2.12375 2.134375 2.2475 3.26875 2.375 4.4375 C2.58125 5.613125 2.7875 6.78875 3 8 C4.93597032 9.51294288 4.93597032 9.51294288 7 10 C7 11.32 7 12.64 7 14 C6.01 14 5.02 14 4 14 C4 14.66 4 15.32 4 16 C-1.2734375 19.22265625 -1.2734375 19.22265625 -3 20 C-3.66 19.67 -4.32 19.34 -5 19 C-5 19.66 -5 20.32 -5 21 C-6.78398614 22.28006797 -8.62853906 23.47660351 -10.5 24.625 C-11.5209375 25.25664062 -12.541875 25.88828125 -13.59375 26.5390625 C-14.3878125 27.02117187 -15.181875 27.50328125 -16 28 C-16.33 27.34 -16.66 26.68 -17 26 C-18.31471568 26.28151087 -19.62675767 26.57553339 -20.9375 26.875 C-22.03384766 27.11863281 -22.03384766 27.11863281 -23.15234375 27.3671875 C-25.20700294 27.82961523 -25.20700294 27.82961523 -26 30 C-26.66 30 -27.32 30 -28 30 C-27.67 26.7 -27.34 23.4 -27 20 C-27.99 19.67 -28.98 19.34 -30 19 C-29.34 19 -28.68 19 -28 19 C-28.33 18.01 -28.66 17.02 -29 16 C-25 14 -25 14 -21 12 C-21.66 14.64 -22.32 17.28 -23 20 C-23.66 20 -24.32 20 -25 20 C-25 20.66 -25 21.32 -25 22 C-23.35 21.34 -21.7 20.68 -20 20 C-19.34 21.32 -18.68 22.64 -18 24 C-16.68 23.67 -15.36 23.34 -14 23 C-14.78130071 20.50447516 -14.78130071 20.50447516 -16 18 C-16.99 17.67 -17.98 17.34 -19 17 C-18.67 15.68 -18.34 14.36 -18 13 C-17.34 13 -16.68 13 -16 13 C-16.33 11.68 -16.66 10.36 -17 9 C-15.68 8.67 -14.36 8.34 -13 8 C-13.33 8.99 -13.66 9.98 -14 11 C-13.34 11 -12.68 11 -12 11 C-12 10.01 -12 9.02 -12 8 C-10.68 8 -9.36 8 -8 8 C-8.33 10.97 -8.66 13.94 -9 17 C-9.33 15.68 -9.66 14.36 -10 13 C-10.99 15.31 -11.98 17.62 -13 20 C-10.49034386 19.29660434 -10.49034386 19.29660434 -8 18 C-7.11306697 15.95894361 -7.11306697 15.95894361 -7 14 C-6.34 14 -5.68 14 -5 14 C-5 13.34 -5 12.68 -5 12 C-3.02 12 -1.04 12 1 12 C1 11.34 1 10.68 1 10 C-0.32 9.67 -1.64 9.34 -3 9 C-2.34 7.35 -1.68 5.7 -1 4 C-1.66 4 -2.32 4 -3 4 C-3 3.01 -3 2.02 -3 1 C-2.01 0.67 -1.02 0.34 0 0 Z M-30 30 C-29.34 30 -28.68 30 -28 30 C-28 30.99 -28 31.98 -28 33 C-27.34 33 -26.68 33 -26 33 C-25.67 34.65 -25.34 36.3 -25 38 C-23.68 38.33 -22.36 38.66 -21 39 C-20.6875 41.8125 -20.6875 41.8125 -21 45 C-23.375 46.75 -23.375 46.75 -26 48 C-26.66 48.66 -27.32 49.32 -28 50 C-29.98821313 50.39764263 -31.98944339 50.73775349 -34 51 C-34 49.68 -34 48.36 -34 47 C-34.66 47 -35.32 47 -36 47 C-36 42.71 -36 38.42 -36 34 C-35.01 33.67 -34.02 33.34 -33 33 C-33 34.32 -33 35.64 -33 37 C-32.34 37 -31.68 37 -31 37 C-30.67 34.69 -30.34 32.38 -30 30 Z " fill="#E9B96A" transform="translate(122,214)"/>
<path d="M0 0 C1.32 0.66 2.64 1.32 4 2 C4 3.65 4 5.3 4 7 C4.33 6.34 4.66 5.68 5 5 C6.65 5 8.3 5 10 5 C10.33 5.99 10.66 6.98 11 8 C10.34 8 9.68 8 9 8 C9 9.98 9 11.96 9 14 C11.97 14 14.94 14 18 14 C18 14.99 18 15.98 18 17 C19.32 17.33 20.64 17.66 22 18 C20.68 18 19.36 18 18 18 C18 18.66 18 19.32 18 20 C19.32 20 20.64 20 22 20 C22.66 21.98 23.32 23.96 24 26 C22.02 26.66 20.04 27.32 18 28 C18 28.99 18 29.98 18 31 C18.99 30.01 19.98 29.02 21 28 C22.51953125 29.14453125 22.51953125 29.14453125 24 31 C24.07421875 33.69921875 24.07421875 33.69921875 23.6875 36.6875 C23.56761719 37.68136719 23.44773437 38.67523438 23.32421875 39.69921875 C23.21722656 40.45847656 23.11023438 41.21773438 23 42 C23.33 42 23.66 42 24 42 C24 43.65 24 45.3 24 47 C23.01 46.505 23.01 46.505 22 46 C21.34 46.66 20.68 47.32 20 48 C19.67 47.01 19.34 46.02 19 45 C14.545 45.495 14.545 45.495 10 46 C9.82057837 42.05272412 9.90649311 39.4019487 12 36 C11.34 35.34 10.68 34.68 10 34 C9.875 31.375 9.875 31.375 10 29 C10.99 29.33 11.98 29.66 13 30 C13 29.34 13 28.68 13 28 C11.0399719 26.36323743 11.0399719 26.36323743 9 25 C10.65 24.67 12.3 24.34 14 24 C14 23.34 14 22.68 14 22 C13.34 22 12.68 22 12 22 C12 20.68 12 19.36 12 18 C10.68 17.67 9.36 17.34 8 17 C7.67 18.32 7.34 19.64 7 21 C7 20.01 7 19.02 7 18 C6.34 18 5.68 18 5 18 C3.375 15.5 3.375 15.5 2 13 C0.68 14.32 -0.64 15.64 -2 17 C-4.97 15.35 -7.94 13.7 -11 12 C-10.67 11.34 -10.34 10.68 -10 10 C-9.34 10.33 -8.68 10.66 -8 11 C-8 10.34 -8 9.68 -8 9 C-6.02 8.34 -4.04 7.68 -2 7 C-2.33 5.35 -2.66 3.7 -3 2 C-2.01 1.34 -1.02 0.68 0 0 Z M12 33 C13 35 13 35 13 35 Z " fill="#E8BB6B" transform="translate(339,222)"/>
<path d="M0 0 C0 4.29 0 8.58 0 13 C0.33 11.02 0.66 9.04 1 7 C1.66 7.33 2.32 7.66 3 8 C3 10.31 3 12.62 3 15 C2.34 15 1.68 15 1 15 C0.8453125 16.1446875 0.8453125 16.1446875 0.6875 17.3125 C-0.04711194 20.18416484 -0.6716065 21.23042094 -3 23 C-3.66 23 -4.32 23 -5 23 C-4.67 24.65 -4.34 26.3 -4 28 C-3.67 26.68 -3.34 25.36 -3 24 C-1.35 23.67 0.3 23.34 2 23 C2 23.66 2 24.32 2 25 C2.33 25 2.66 25 3 25 C3.02697137 27.60423592 3.04682489 30.20819244 3.0625 32.8125 C3.07087891 33.55048828 3.07925781 34.28847656 3.08789062 35.04882812 C3.10259828 38.29922068 3.03531702 40.89404895 2 44 C0.35 44 -1.3 44 -3 44 C-3.33 42.68 -3.66 41.36 -4 40 C-4 40.66 -4 41.32 -4 42 C-4.66 42 -5.32 42 -6 42 C-5.67 41.01 -5.34 40.02 -5 39 C-4.01 39 -3.02 39 -2 39 C-2.33 37.02 -2.66 35.04 -3 33 C-3.99 33.66 -4.98 34.32 -6 35 C-6 36.32 -6 37.64 -6 39 C-7.98 39.495 -7.98 39.495 -10 40 C-10.042721 38.33388095 -10.04063832 36.66617115 -10 35 C-9.505 34.505 -9.505 34.505 -9 34 C-9.66 33.67 -10.32 33.34 -11 33 C-10.45773019 29.20411134 -8.79872437 27.52788007 -6 25 C-6.66 25 -7.32 25 -8 25 C-8.33 25.99 -8.66 26.98 -9 28 C-9.66 28 -10.32 28 -11 28 C-10.814375 26.88625 -10.62875 25.7725 -10.4375 24.625 C-9.68319343 21.17431139 -9.68319343 21.17431139 -11 19 C-11.07194869 16.11629667 -11.09291708 13.25760336 -11.0625 10.375 C-11.05798828 9.57320313 -11.05347656 8.77140625 -11.04882812 7.9453125 C-11.03703168 5.96350994 -11.01909605 3.98174567 -11 2 C-10.01 2.495 -10.01 2.495 -9 3 C-8.01 3.33 -7.02 3.66 -6 4 C-6 3.01 -6 2.02 -6 1 C-3.92446352 0.4465236 -2.15634036 0 0 0 Z " fill="#E8BC6B" transform="translate(360,331)"/>
<path d="M0 0 C0.33 1.32 0.66 2.64 1 4 C2.32 3.67 3.64 3.34 5 3 C5 6 5 6 4 8 C4.66 8 5.32 8 6 8 C5.67 8.99 5.34 9.98 5 11 C4.34 11 3.68 11 3 11 C3.60183749 13.02045442 4.27306096 15.02111039 5 17 C5.66 17.33 6.32 17.66 7 18 C6.79375 17.401875 6.5875 16.80375 6.375 16.1875 C6 14 6 14 8 11 C8.08121924 12.60332791 8.13929134 14.20784026 8.1875 15.8125 C8.22230469 16.70582031 8.25710938 17.59914062 8.29296875 18.51953125 C7.95081002 21.41647515 7.24606427 22.22555028 5 24 C5 23.34 5 22.68 5 22 C3.35 22 1.7 22 0 22 C0 25.3 0 28.6 0 32 C0.66 30.35 1.32 28.7 2 27 C2.99 27 3.98 27 5 27 C5.66 26.34 6.32 25.68 7 25 C8.31532237 27.63064474 8.09691198 29.6298344 8.0625 32.5625 C8.05347656 33.55378906 8.04445313 34.54507813 8.03515625 35.56640625 C8.02355469 36.36949219 8.01195312 37.17257813 8 38 C8 38.33 8 38.66 8 39 C8 41.33333333 8 43.66666667 8 46 C6.515 46.495 6.515 46.495 5 47 C5 47.66 5 48.32 5 49 C2.525 49.495 2.525 49.495 0 50 C-0.33 47.69 -0.66 45.38 -1 43 C-0.34 43.33 0.32 43.66 1 44 C0.67 41.36 0.34 38.72 0 36 C-0.66 36.66 -1.32 37.32 -2 38 C-2.33 37.34 -2.66 36.68 -3 36 C-3.66 37.98 -4.32 39.96 -5 42 C-5.33 42 -5.66 42 -6 42 C-6 36.39 -6 30.78 -6 25 C-5.01 25 -4.02 25 -3 25 C-2.67 24.01 -2.34 23.02 -2 22 C-3.32 22.33 -4.64 22.66 -6 23 C-6 21.68 -6 20.36 -6 19 C-5.34 19 -4.68 19 -4 19 C-3.67 17.02 -3.34 15.04 -3 13 C-3.99 12.67 -4.98 12.34 -6 12 C-6.43898615 6.64436896 -6.43898615 6.64436896 -6 4 C-3.5625 2.0625 -3.5625 2.0625 -1 1 C-0.67 0.67 -0.34 0.34 0 0 Z " fill="#E4BA6B" transform="translate(422,151)"/>
<path d="M0 0 C0.99 0.33 1.98 0.66 3 1 C3.11622939 4.74973906 3.1872595 8.49901464 3.25 12.25 C3.30027344 13.84521484 3.30027344 13.84521484 3.3515625 15.47265625 C3.36445313 16.49746094 3.37734375 17.52226562 3.390625 18.578125 C3.41157227 19.52075195 3.43251953 20.46337891 3.45410156 21.43457031 C2.86814237 24.74492475 1.44582264 25.77980247 -1 28 C-2.26784124 31.13350717 -2.26784124 31.13350717 -3 34 C-5.97 34.495 -5.97 34.495 -9 35 C-7.68 35.33 -6.36 35.66 -5 36 C-5 36.66 -5 37.32 -5 38 C-3.35 38 -1.7 38 0 38 C-1.98 38.495 -1.98 38.495 -4 39 C-3.34 40.32 -2.68 41.64 -2 43 C-1.01 42.34 -0.02 41.68 1 41 C1 41.99 1 42.98 1 44 C1.66 44.33 2.32 44.66 3 45 C1.6078125 45.1546875 1.6078125 45.1546875 0.1875 45.3125 C-3.03254358 46.0070192 -4.02579865 46.47740939 -6 49 C-6 48.01 -6 47.02 -6 46 C-6.66 46 -7.32 46 -8 46 C-8 44.68 -8 43.36 -8 42 C-8.99 42 -9.98 42 -11 42 C-11 38.7 -11 35.4 -11 32 C-10.34 32 -9.68 32 -9 32 C-9 30.35 -9 28.7 -9 27 C-9.66 26.67 -10.32 26.34 -11 26 C-11 22.37 -11 18.74 -11 15 C-9.68 15 -8.36 15 -7 15 C-7 16.32 -7 17.64 -7 19 C-6.34 19 -5.68 19 -5 19 C-4.67 19.66 -4.34 20.32 -4 21 C-3.67 17.7 -3.34 14.4 -3 11 C-1.68 10.67 -0.36 10.34 1 10 C0.835 8.906875 0.67 7.81375 0.5 6.6875 C0 3 0 3 0 0 Z M1 40 C3 41 3 41 3 41 Z M-11 44 C-9 48 -9 48 -9 50 C-8.34 50.33 -7.68 50.66 -7 51 C-7.66 51 -8.32 51 -9 51 C-9 51.66 -9 52.32 -9 53 C-9.66 53 -10.32 53 -11 53 C-11 50.03 -11 47.06 -11 44 Z " fill="#EABA6B" transform="translate(177,316)"/>
<path d="M0 0 C-0.020625 0.94875 -0.04125 1.8975 -0.0625 2.875 C-0.22551826 5.90666283 -0.22551826 5.90666283 1 8 C1.103125 7.21625 1.20625 6.4325 1.3125 5.625 C2 3 2 3 5 1 C6.70840281 2.63412443 7.93453047 3.86906094 9 6 C9.99 6 10.98 6 12 6 C11.67 7.32 11.34 8.64 11 10 C11.45375 9.38125 11.9075 8.7625 12.375 8.125 C14 6 14 6 16 4 C16.66 5.32 17.32 6.64 18 8 C17.67 8.33 17.34 8.66 17 9 C17.99 9.33 18.98 9.66 20 10 C21.1875 13.0625 21.1875 13.0625 22 16 C23.98 15.01 25.96 14.02 28 13 C27.38722388 15.96175123 26.74627478 17.38058783 25 20 C22.6171875 20.73046875 22.6171875 20.73046875 19.875 21.1875 C18.96492188 21.34605469 18.05484375 21.50460938 17.1171875 21.66796875 C16.41851562 21.77753906 15.71984375 21.88710937 15 22 C15 21.01 15 20.02 15 19 C14.2575 19.04125 13.515 19.0825 12.75 19.125 C8.72228549 18.94192207 6.81327402 17.86574331 4.0625 14.9375 C1.62692202 12.64953281 0.23294949 12.55196699 -3 12 C-5.8125 10.625 -5.8125 10.625 -8 9 C-8 8.01 -8 7.02 -8 6 C-7.01 6 -6.02 6 -5 6 C-5.33 4.35 -5.66 2.7 -6 1 C-3 0 -3 0 0 0 Z " fill="#E9BC69" transform="translate(262,44)"/>
<path d="M0 0 C0.33 0 0.66 0 1 0 C1 3.63 1 7.26 1 11 C0.01 11.33 -0.98 11.66 -2 12 C-2.73323796 14.01508358 -2.73323796 14.01508358 -3 16 C-3.66 16 -4.32 16 -5 16 C-4.95875 17.27875 -4.9175 18.5575 -4.875 19.875 C-4.8046875 22.0546875 -4.8046875 22.0546875 -5 24 C-5.66 24.66 -6.32 25.32 -7 26 C-7 26.66 -7 27.32 -7 28 C-6.34 28 -5.68 28 -5 28 C-5 28.66 -5 29.32 -5 30 C-5.33 30.33 -5.66 30.66 -6 31 C-4.02 30.67 -2.04 30.34 0 30 C-0.33 28.68 -0.66 27.36 -1 26 C-0.34 26 0.32 26 1 26 C1 30.62 1 35.24 1 40 C0.34 40 -0.32 40 -1 40 C-1.99 40.66 -2.98 41.32 -4 42 C-4.99 42 -5.98 42 -7 42 C-7 41.34 -7 40.68 -7 40 C-8.32 40 -9.64 40 -11 40 C-11 41.65 -11 43.3 -11 45 C-11.99 45 -12.98 45 -14 45 C-14 43.35 -14 41.7 -14 40 C-13.34 40 -12.68 40 -12 40 C-11.0904176 36.15954098 -11.0652645 33.04546185 -11.625 29.1875 C-12.27931229 23.86414447 -11.08363724 19.87359219 -9 15 C-9.66 15 -10.32 15 -11 15 C-11 14.01 -11 13.02 -11 12 C-11.66 12 -12.32 12 -13 12 C-13.33 12.66 -13.66 13.32 -14 14 C-13.75 11.125 -13.75 11.125 -13 8 C-10.14088761 5.83101819 -8.71556422 6 -5 6 C-5 6.66 -5 7.32 -5 8 C-4.34 8 -3.68 8 -3 8 C-2.690625 6.865625 -2.38125 5.73125 -2.0625 4.5625 C-1 1 -1 1 0 0 Z " fill="#E8BA6A" transform="translate(33,256)"/>
<path d="M0 0 C0.66 0 1.32 0 2 0 C3.4783226 2.95664519 3.06032783 5.74229737 3 9 C3.66 9 4.32 9 5 9 C5 9.66 5 10.32 5 11 C3.68 11 2.36 11 1 11 C1 11.66 1 12.32 1 13 C0.01 12.67 -0.98 12.34 -2 12 C-2 12.99 -2 13.98 -2 15 C-3.95825873 15.02694851 -5.91662226 15.04637218 -7.875 15.0625 C-9.51082031 15.07990234 -9.51082031 15.07990234 -11.1796875 15.09765625 C-14 15 -14 15 -16 14 C-16 16.97 -16 19.94 -16 23 C-16.66 23 -17.32 23 -18 23 C-18.99 20.69 -19.98 18.38 -21 16 C-21 18.31 -21 20.62 -21 23 C-22.65 23.33 -24.3 23.66 -26 24 C-25.67 22.02 -25.34 20.04 -25 18 C-25.66 18 -26.32 18 -27 18 C-27 18.99 -27 19.98 -27 21 C-27.99 20.67 -28.98 20.34 -30 20 C-29.505 15.545 -29.505 15.545 -29 11 C-27.33333333 11 -25.66666667 11 -24 11 C-23.67 10.01 -23.34 9.02 -23 8 C-22.34 8 -21.68 8 -21 8 C-20.67 7.34 -20.34 6.68 -20 6 C-18.33333333 6 -16.66666667 6 -15 6 C-15.33 5.01 -15.66 4.02 -16 3 C-14.02 2.34 -12.04 1.68 -10 1 C-10.185625 1.721875 -10.37125 2.44375 -10.5625 3.1875 C-11.01995307 6.12826973 -10.73516357 8.14103058 -10 11 C-7.50447516 10.21869929 -7.50447516 10.21869929 -5 9 C-4.67 8.01 -4.34 7.02 -4 6 C-3.34 6 -2.68 6 -2 6 C-2 6.66 -2 7.32 -2 8 C-1.01 7.01 -0.02 6.02 1 5 C0.01 5 -0.98 5 -2 5 C-2 4.01 -2 3.02 -2 2 C-1.34 2 -0.68 2 0 2 C0 1.34 0 0.68 0 0 Z " fill="#E9BA6A" transform="translate(157,199)"/>
<path d="M0 0 C0 0.66 0 1.32 0 2 C3.57644848 3.2380014 6.33694766 2.74926071 10 2 C10 2.66 10 3.32 10 4 C9.01 4.495 9.01 4.495 8 5 C8.33 7.64 8.66 10.28 9 13 C8.34 13 7.68 13 7 13 C5.61767557 14.62626404 4.28062485 16.2925002 3 18 C4.32 17.67 5.64 17.34 7 17 C8.4070473 19.6264883 9.62816493 22.02531947 10 25 C9.0625 27.25 9.0625 27.25 8 29 C7.34 29 6.68 29 6 29 C6 29.66 6 30.32 6 31 C7.32 30.67 8.64 30.34 10 30 C10 30.66 10 31.32 10 32 C7 33 7 33 4 32 C3.67 32.66 3.34 33.32 3 34 C2.67 33.34 2.34 32.68 2 32 C1.01 31.67 0.02 31.34 -1 31 C-0.37240135 28.07120629 0.58622659 25.63904371 2 23 C1.01 23.99 0.02 24.98 -1 26 C-1.66 25.67 -2.32 25.34 -3 25 C-1.625 22.5 -1.625 22.5 0 20 C0.66 20 1.32 20 2 20 C1.01 19.01 0.02 18.02 -1 17 C-1 17.99 -1 18.98 -1 20 C-2.32 19.67 -3.64 19.34 -5 19 C-4.01 18.67 -3.02 18.34 -2 18 C-2.495 17.05125 -2.99 16.1025 -3.5 15.125 C-5 12 -5 12 -5 10 C-4.01 9.67 -3.02 9.34 -2 9 C-1.67 8.34 -1.34 7.68 -1 7 C-1.99 7 -2.98 7 -4 7 C-4.6875 5.1875 -4.6875 5.1875 -5 3 C-3.38441968 0.84589291 -2.74502455 0 0 0 Z " fill="#E7BA6A" transform="translate(276,380)"/>
<path d="M0 0 C0.99 0 1.98 0 3 0 C3 0.99 3 1.98 3 3 C3.66 3 4.32 3 5 3 C5.33 5.64 5.66 8.28 6 11 C6.66 11 7.32 11 8 11 C7.4375 12.875 7.4375 12.875 6 15 C2.375 16.25 2.375 16.25 -1 17 C-1 16.34 -1 15.68 -1 15 C-1.99 15 -2.98 15 -4 15 C-4.33 15.99 -4.66 16.98 -5 18 C-5.33 17.34 -5.66 16.68 -6 16 C-7.98 16.33 -9.96 16.66 -12 17 C-12.99 15.68 -13.98 14.36 -15 13 C-15.33 13.99 -15.66 14.98 -16 16 C-15.34 16 -14.68 16 -14 16 C-14 16.99 -14 17.98 -14 19 C-15.98 19.33 -17.96 19.66 -20 20 C-20 19.34 -20 18.68 -20 18 C-20.66 18 -21.32 18 -22 18 C-22 16.35 -22 14.7 -22 13 C-19.525 13.495 -19.525 13.495 -17 14 C-16.67 12.35 -16.34 10.7 -16 9 C-15.01 9 -14.02 9 -13 9 C-12.67 9.33 -12.34 9.66 -12 10 C-11.67 9.34 -11.34 8.68 -11 8 C-10.01 8 -9.02 8 -8 8 C-9.32 7.34 -10.64 6.68 -12 6 C-10.35 4.68 -8.7 3.36 -7 2 C-6.1028125 2.99 -6.1028125 2.99 -5.1875 4 C-3.12498166 6.3373846 -3.12498166 6.3373846 0 6 C-0.185625 5.195625 -0.37125 4.39125 -0.5625 3.5625 C-0.706875 2.716875 -0.85125 1.87125 -1 1 C-0.67 0.67 -0.34 0.34 0 0 Z " fill="#E6B968" transform="translate(191,175)"/>
<path d="M0 0 C3 1 3 1 4.0546875 2.78515625 C5.64672634 7.20495932 6.39650463 10.06934228 4.6875 14.5625 C4.130625 15.696875 3.57375 16.83125 3 18 C2.34 18 1.68 18 1 18 C1.33 19.65 1.66 21.3 2 23 C1.01 23 0.02 23 -1 23 C-1 20.03 -1 17.06 -1 14 C-0.34 14 0.32 14 1 14 C1.33 13.34 1.66 12.68 2 12 C-0.64 11.67 -3.28 11.34 -6 11 C-6 11.66 -6 12.32 -6 13 C-5.01 13 -4.02 13 -3 13 C-3 14.65 -3 16.3 -3 18 C-4.32 17.67 -5.64 17.34 -7 17 C-7.33 17.99 -7.66 18.98 -8 20 C-8.99 20.33 -9.98 20.66 -11 21 C-12.5625 19.8125 -12.5625 19.8125 -14 18 C-13.6875 15.3125 -13.6875 15.3125 -13 13 C-13.66 12.67 -14.32 12.34 -15 12 C-15.33 13.65 -15.66 15.3 -16 17 C-17.65 17 -19.3 17 -21 17 C-21 16.01 -21 15.02 -21 14 C-22.98 14.99 -22.98 14.99 -25 16 C-25.33 14.35 -25.66 12.7 -26 11 C-27.32 11.33 -28.64 11.66 -30 12 C-30 11.01 -30 10.02 -30 9 C-27.525 9.495 -27.525 9.495 -25 10 C-25 10.99 -25 11.98 -25 13 C-22.69 13 -20.38 13 -18 13 C-16.42726432 10.1575146 -16.42726432 10.1575146 -16 7 C-13.69 7.66 -11.38 8.32 -9 9 C-9 9.66 -9 10.32 -9 11 C-8.34 11 -7.68 11 -7 11 C-6.87625 10.360625 -6.7525 9.72125 -6.625 9.0625 C-6.41875 8.381875 -6.2125 7.70125 -6 7 C-5.34 6.67 -4.68 6.34 -4 6 C-3.67 5.01 -3.34 4.02 -3 3 C-2.34 3 -1.68 3 -1 3 C-0.67 2.01 -0.34 1.02 0 0 Z " fill="#E7B968" transform="translate(89,378)"/>
<path d="M0 0 C1.98 0.66 3.96 1.32 6 2 C5.01 2.495 5.01 2.495 4 3 C4 3.99 4 4.98 4 6 C5.32 5.34 6.64 4.68 8 4 C10 7 10 7 9.625 10.1875 C9.315625 11.5796875 9.315625 11.5796875 9 13 C8.34 12.67 7.68 12.34 7 12 C6.67 14.64 6.34 17.28 6 20 C2.16381691 18.52509042 -1.50731804 16.82866184 -5.1875 15 C-6.23292969 14.484375 -7.27835937 13.96875 -8.35546875 13.4375 C-11 12 -11 12 -13 10 C-12.75 6.4375 -12.75 6.4375 -12 3 C-11.34 2.67 -10.68 2.34 -10 2 C-10 2.66 -10 3.32 -10 4 C-9.34 4 -8.68 4 -8 4 C-7.67 3.34 -7.34 2.68 -7 2 C-6.01 3.65 -5.02 5.3 -4 7 C-4.99 7 -5.98 7 -7 7 C-7 7.99 -7 8.98 -7 10 C-3.535 9.505 -3.535 9.505 0 9 C0 8.01 0 7.02 0 6 C0.66 6 1.32 6 2 6 C2 5.01 2 4.02 2 3 C1.34 3 0.68 3 0 3 C0 2.01 0 1.02 0 0 Z " fill="#E7BA6A" transform="translate(414,124)"/>
<path d="M0 0 C0.99 0.33 1.98 0.66 3 1 C3.6875 3.0625 3.6875 3.0625 4 5 C3.34 5 2.68 5 2 5 C2 6.65 2 8.3 2 10 C2.99 10.33 3.98 10.66 5 11 C4.01 12.485 4.01 12.485 3 14 C2.61500109 15.65549531 2.27206865 17.3222433 2 19 C1.67 18.34 1.34 17.68 1 17 C0.01 17.66 -0.98 18.32 -2 19 C-1.34 19.66 -0.68 20.32 0 21 C0.99 21 1.98 21 3 21 C3.33 21.66 3.66 22.32 4 23 C3.34 23.99 2.68 24.98 2 26 C0.35 25.67 -1.3 25.34 -3 25 C-2.67 23.68 -2.34 22.36 -2 21 C-2.66 21 -3.32 21 -4 21 C-4 22.65 -4 24.3 -4 26 C-5.98 26.99 -5.98 26.99 -8 28 C-8 24.04 -8 20.08 -8 16 C-7.01 15.67 -6.02 15.34 -5 15 C-4.7763663 13.58566794 -4.57173524 12.16832382 -4.375 10.75 C-4.25898438 9.96109375 -4.14296875 9.1721875 -4.0234375 8.359375 C-3.99680605 5.67847541 -4.63407916 4.27305911 -6 2 C-3.69 2.33 -1.38 2.66 1 3 C0.67 2.01 0.34 1.02 0 0 Z " fill="#EABB6D" transform="translate(279,286)"/>
<path d="M0 0 C2 2 2 2 2.1875 5.4375 C2 9 2 9 1 12 C-1.14587384 13.315213 -2.47013105 14 -5 14 C-5.33 16.64 -5.66 19.28 -6 22 C-9.78187881 23.83691257 -11.94568308 24.15837626 -16 23 C-15.67 21.68 -15.34 20.36 -15 19 C-14.01 19 -13.02 19 -12 19 C-12 19.66 -12 20.32 -12 21 C-9.81287195 19.39795381 -9.81287195 19.39795381 -8 17 C-8.14349347 13.80045046 -8.14349347 13.80045046 -9 11 C-9.99 10.67 -10.98 10.34 -12 10 C-12 10.99 -12 11.98 -12 13 C-12.99 13 -13.98 13 -15 13 C-15.33 11.02 -15.66 9.04 -16 7 C-13.40651442 5.40400888 -12.10329821 4.99569591 -9 5.125 C-5.88476827 5.30594279 -5.88476827 5.30594279 -3.75 3.0625 C-3.1725 2.381875 -2.595 1.70125 -2 1 C-1.34 0.67 -0.68 0.34 0 0 Z " fill="#E5BB68" transform="translate(382,379)"/>
<path d="M0 0 C0.99 0.33 1.98 0.66 3 1 C2.67 1.66 2.34 2.32 2 3 C3.2375 2.649375 4.475 2.29875 5.75 1.9375 C8.84031284 1.06191136 10.9776187 0.74505472 14 2 C14.33 2.99 14.66 3.98 15 5 C13.35 5 11.7 5 10 5 C10 5.66 10 6.32 10 7 C10.99 7 11.98 7 13 7 C13 7.66 13 8.32 13 9 C13.66 9.33 14.32 9.66 15 10 C14.34 10 13.68 10 13 10 C12.67 11.65 12.34 13.3 12 15 C10.0625 14.625 10.0625 14.625 8 14 C7.67 13.34 7.34 12.68 7 12 C5.35 12 3.7 12 2 12 C2.33 10.35 2.66 8.7 3 7 C2.071875 7.515625 1.14375 8.03125 0.1875 8.5625 C-3 10 -3 10 -6 9 C-6.875 7.125 -6.875 7.125 -7 5 C-5.8125 3.25 -5.8125 3.25 -4 2 C-2.68 2 -1.36 2 0 2 C0 1.34 0 0.68 0 0 Z " fill="#EABB6B" transform="translate(289,197)"/>
<path d="M0 0 C3.98542514 1.36643148 6.92539863 3.10109014 10 6 C10 6.99 10 7.98 10 9 C10.99 8.67 11.98 8.34 13 8 C15.2477975 10.05233685 16.0022242 11.00667261 17 14 C14.03 13.67 11.06 13.34 8 13 C7.67 13.99 7.34 14.98 7 16 C6.67 15.67 6.34 15.34 6 15 C5.01 16.485 5.01 16.485 4 18 C3.67 14.7 3.34 11.4 3 8 C2.34 8 1.68 8 1 8 C1.185625 8.78375 1.37125 9.5675 1.5625 10.375 C2 13 2 13 1 15 C0.01 14.67 -0.98 14.34 -2 14 C-1.67 12.35 -1.34 10.7 -1 9 C-1.99 8.67 -2.98 8.34 -4 8 C-3.50168276 4.31245243 -2.89932357 2.39509338 0 0 Z " fill="#ECBF70" transform="translate(267,270)"/>
<path d="M0 0 C0.33 1.32 0.66 2.64 1 4 C1.66 4 2.32 4 3 4 C3.33 3.34 3.66 2.68 4 2 C4.33 2.66 4.66 3.32 5 4 C5.99 4.33 6.98 4.66 8 5 C7.505 5.556875 7.01 6.11375 6.5 6.6875 C4.75245633 9.38162983 4.73781251 10.85375007 5 14 C5.99 14 6.98 14 8 14 C8 13.34 8 12.68 8 12 C11.465 11.505 11.465 11.505 15 11 C14.34 12.32 13.68 13.64 13 15 C12.34 15 11.68 15 11 15 C10.01 16.485 10.01 16.485 9 18 C6.69350484 19.33925525 4.54176763 20.15274412 2 21 C-0.31332486 17.53001271 -0.33957563 16.07490752 0 12 C0.66 11.01 1.32 10.02 2 9 C-0.31 9 -2.62 9 -5 9 C-5 7.35 -5 5.7 -5 4 C-3.68 3.67 -2.36 3.34 -1 3 C-1.99 2.67 -2.98 2.34 -4 2 C-2.68 1.34 -1.36 0.68 0 0 Z " fill="#E7BB6A" transform="translate(230,242)"/>
<path d="M0 0 C0.66 0 1.32 0 2 0 C2 0.99 2 1.98 2 3 C3.32 3.33 4.64 3.66 6 4 C6 4.99 6 5.98 6 7 C6.99 7 7.98 7 9 7 C9 7.66 9 8.32 9 9 C7.35 9.33 5.7 9.66 4 10 C4 9.34 4 8.68 4 8 C3.01 8 2.02 8 1 8 C0.67 8.66 0.34 9.32 0 10 C-1.97888961 10.72693904 -3.97954558 11.39816251 -6 12 C-6.33 13.65 -6.66 15.3 -7 17 C-6.01 17.66 -5.02 18.32 -4 19 C-4.33 19.66 -4.66 20.32 -5 21 C-8.875 19.25 -8.875 19.25 -10 17 C-12.52733235 16.34444881 -12.52733235 16.34444881 -15 16 C-14.835 15.236875 -14.67 14.47375 -14.5 13.6875 C-13.90854604 10.96403764 -13.90854604 10.96403764 -14 8 C-12.68 8.66 -11.36 9.32 -10 10 C-10 9.34 -10 8.68 -10 8 C-7.69 7.34 -5.38 6.68 -3 6 C-2.67 4.68 -2.34 3.36 -2 2 C-1.34 2 -0.68 2 0 2 C0 1.34 0 0.68 0 0 Z " fill="#E6B768" transform="translate(219,157)"/>
<path d="M0 0 C1.9375 0.625 1.9375 0.625 4 2 C4.75 5.125 4.75 5.125 5 8 C5.99 8 6.98 8 8 8 C8 8.99 8 9.98 8 11 C8.99 10.34 9.98 9.68 11 9 C14 9 14 9 17 10 C15.63016497 13.16115776 15.0109362 13.9927092 12 16 C9.6670386 16.04166002 7.3329614 16.04166002 5 16 C1.9254644 16.7763932 1.9254644 16.7763932 0 19 C-1.65 18.01 -3.3 17.02 -5 16 C-4.67 15.01 -4.34 14.02 -4 13 C-1.36 12.67 1.28 12.34 4 12 C4 10.35 4 8.7 4 7 C2.68 7 1.36 7 0 7 C-1.125 2.25 -1.125 2.25 0 0 Z " fill="#ECBC6B" transform="translate(308,203)"/>
<path d="M0 0 C1.32 0 2.64 0 4 0 C4 0.66 4 1.32 4 2 C3.34 2.66 2.68 3.32 2 4 C2 4.66 2 5.32 2 6 C2.99 6.33 3.98 6.66 5 7 C5 4.69 5 2.38 5 0 C6.32 0.33 7.64 0.66 9 1 C8.34 3.97 7.68 6.94 7 10 C6.34 10 5.68 10 5 10 C5.33 13.63 5.66 17.26 6 21 C4.35 21.33 2.7 21.66 1 22 C0.67 22.66 0.34 23.32 0 24 C0 23.34 0 22.68 0 22 C-0.66 21.67 -1.32 21.34 -2 21 C-1.01 10.605 -1.01 10.605 0 0 Z " fill="#DDB565" transform="translate(21,158)"/>
<path d="M0 0 C1.98 0 3.96 0 6 0 C6.33 0.99 6.66 1.98 7 3 C10.465 2.505 10.465 2.505 14 2 C14 4.31 14 6.62 14 9 C11.36 8.67 8.72 8.34 6 8 C5.67 8.99 5.34 9.98 5 11 C2.5625 10.375 2.5625 10.375 0 9 C-1.0704232 5.40643641 -1.19105377 3.5731613 0 0 Z " fill="#EABD6E" transform="translate(87,354)"/>
<path d="M0 0 C-0.33 1.98 -0.66 3.96 -1 6 C-0.34 4.35 0.32 2.7 1 1 C1.66 1.99 2.32 2.98 3 4 C4.32 4 5.64 4 7 4 C6.67 5.32 6.34 6.64 6 8 C3.03 7.505 3.03 7.505 0 7 C0 7.66 0 8.32 0 9 C-0.99 9.495 -0.99 9.495 -2 10 C-2.33 10.99 -2.66 11.98 -3 13 C-2.34 13.33 -1.68 13.66 -1 14 C-3.31 14.33 -5.62 14.66 -8 15 C-7.67 12.69 -7.34 10.38 -7 8 C-6.01 7.67 -5.02 7.34 -4 7 C-4.33 6.01 -4.66 5.02 -5 4 C-5.66 3.67 -6.32 3.34 -7 3 C-7 3.99 -7 4.98 -7 6 C-7.66 6 -8.32 6 -9 6 C-7.01260984 0.46369883 -5.82303895 -0.15323787 0 0 Z " fill="#DAAD5C" transform="translate(117,219)"/>
<path d="M0 0 C0 1.32 0 2.64 0 4 C0.66 4 1.32 4 2 4 C2 5.32 2 6.64 2 8 C2.66 8 3.32 8 4 8 C3.70703125 9.98567708 3.4140625 11.97135417 3.12109375 13.95703125 C2.86095201 16.2025342 2.86095201 16.2025342 4 19 C2.35 18.67 0.7 18.34 -1 18 C-0.62875 16.948125 -0.62875 16.948125 -0.25 15.875 C0.26510504 12.81918959 0.26510504 12.81918959 -1.625 9.6875 C-3.71404057 6.7341439 -3.71404057 6.7341439 -6.75 6.625 C-7.4925 6.74875 -8.235 6.8725 -9 7 C-9 6.34 -9 5.68 -9 5 C-7.5390625 3.7109375 -7.5390625 3.7109375 -5.625 2.375 C-4.99851562 1.92898437 -4.37203125 1.48296875 -3.7265625 1.0234375 C-2 0 -2 0 0 0 Z " fill="#D9B060" transform="translate(327,214)"/>
<path d="M0 0 C0.66 0.66 1.32 1.32 2 2 C1 5 1 5 -0.875 6 C-1.57625 6.33 -2.2775 6.66 -3 7 C-5.13612366 8.88964785 -6.38907149 10.58360724 -8 13 C-8.33 12.34 -8.66 11.68 -9 11 C-9.99 10.67 -10.98 10.34 -12 10 C-12 10.99 -12 11.98 -12 13 C-12.99 13 -13.98 13 -15 13 C-15.33 11.02 -15.66 9.04 -16 7 C-13.40651442 5.40400888 -12.10329821 4.99569591 -9 5.125 C-5.88476827 5.30594279 -5.88476827 5.30594279 -3.75 3.0625 C-3.1725 2.381875 -2.595 1.70125 -2 1 C-1.34 0.67 -0.68 0.34 0 0 Z " fill="#EEBF6D" transform="translate(382,379)"/>
<path d="M0 0 C0.99 0 1.98 0 3 0 C3.66 3.3 4.32 6.6 5 10 C4.01 10.495 4.01 10.495 3 11 C2.67 11.99 2.34 12.98 2 14 C1.01 13.34 0.02 12.68 -1 12 C-1.33 12.99 -1.66 13.98 -2 15 C-2.99 14.01 -3.98 13.02 -5 12 C-4.34 12 -3.68 12 -3 12 C-3 9.69 -3 7.38 -3 5 C-3.66 4.67 -4.32 4.34 -5 4 C-4.0409375 3.8453125 -4.0409375 3.8453125 -3.0625 3.6875 C-2.381875 3.460625 -1.70125 3.23375 -1 3 C-0.67 2.01 -0.34 1.02 0 0 Z " fill="#F1C072" transform="translate(31,359)"/>
<path d="M0 0 C2.33218272 0.84806644 3.44954313 1.8950996 5.0625 3.75 C3.0625 5.75 3.0625 5.75 -0.9375 6.75 C-1.5975 9.39 -2.2575 12.03 -2.9375 14.75 C-3.5975 13.76 -4.2575 12.77 -4.9375 11.75 C-5.9275 11.75 -6.9175 11.75 -7.9375 11.75 C-10.125 10.75 -10.125 10.75 -11.9375 9.75 C-11.9375 9.42 -11.9375 9.09 -11.9375 8.75 C-9.9575 8.75 -7.9775 8.75 -5.9375 8.75 C-5.75574219 7.90115234 -5.75574219 7.90115234 -5.5703125 7.03515625 C-5.31894531 5.93494141 -5.31894531 5.93494141 -5.0625 4.8125 C-4.90007812 4.08160156 -4.73765625 3.35070312 -4.5703125 2.59765625 C-3.67478615 -0.01705957 -2.68788352 -0.34682368 0 0 Z " fill="#E2B667" transform="translate(224.9375,471.25)"/>
<path d="M0 0 C2 3 2 3 2 5 C2.66 5.33 3.32 5.66 4 6 C4.33 5.34 4.66 4.68 5 4 C6.32 4.33 7.64 4.66 9 5 C9 5.99 9 6.98 9 8 C7.02 8.99 5.04 9.98 3 11 C3 10.34 3 9.68 3 9 C1.8553125 9.556875 1.8553125 9.556875 0.6875 10.125 C-0.199375 10.41375 -1.08625 10.7025 -2 11 C-2.99 10.34 -3.98 9.68 -5 9 C-4.75 5.625 -4.75 5.625 -4 2 C-1.9375 0.5625 -1.9375 0.5625 0 0 Z " fill="#ECBB6D" transform="translate(202,174)"/>
<path d="M0 0 C1.32 0.66 2.64 1.32 4 2 C4 3.32 4 4.64 4 6 C4.66 6 5.32 6 6 6 C6 6.99 6 7.98 6 9 C5.34 9 4.68 9 4 9 C4 9.99 4 10.98 4 12 C3.05125 12.309375 2.1025 12.61875 1.125 12.9375 C-1.86080408 13.87394742 -1.86080408 13.87394742 -4 15 C-3.625 12.5625 -3.625 12.5625 -3 10 C-2.34 9.67 -1.68 9.34 -1 9 C-1.33 8.67 -1.66 8.34 -2 8 C-2.04080783 6.00041636 -2.04254356 3.99954746 -2 2 C-1.34 2 -0.68 2 0 2 C0 1.34 0 0.68 0 0 Z " fill="#D8AD5C" transform="translate(410,121)"/>
<path d="M0 0 C0.99 0 1.98 0 3 0 C3 0.66 3 1.32 3 2 C4.32 2 5.64 2 7 2 C8 4 9 6 10 8 C6.04 9.98 6.04 9.98 2 12 C2 11.01 2 10.02 2 9 C1.34 9 0.68 9 0 9 C-1.125 3.375 -1.125 3.375 0 0 Z " fill="#EBBE6B" transform="translate(249,258)"/>
<path d="M0 0 C0.33 0.99 0.66 1.98 1 3 C0.34 3 -0.32 3 -1 3 C-1 3.99 -1 4.98 -1 6 C-1.66 6 -2.32 6 -3 6 C-3 6.66 -3 7.32 -3 8 C-2.01 7.67 -1.02 7.34 0 7 C-0.33 8.32 -0.66 9.64 -1 11 C-2.32 11 -3.64 11 -5 11 C-5.33 11.66 -5.66 12.32 -6 13 C-6.99 12.67 -7.98 12.34 -9 12 C-9 10.35 -9 8.7 -9 7 C-8.34 6.67 -7.68 6.34 -7 6 C-6.505 5.175 -6.01 4.35 -5.5 3.5 C-3.83099263 0.71832104 -3.23301333 0 0 0 Z " fill="#E0AE5B" transform="translate(222,17)"/>
<path d="M0 0 C1.23556641 0.01740234 1.23556641 0.01740234 2.49609375 0.03515625 C3.32238281 0.04417969 4.14867187 0.05320312 5 0.0625 C5.63808594 0.07410156 6.27617187 0.08570312 6.93359375 0.09765625 C6.93359375 0.75765625 6.93359375 1.41765625 6.93359375 2.09765625 C7.92359375 2.09765625 8.91359375 2.09765625 9.93359375 2.09765625 C9.60359375 3.74765625 9.27359375 5.39765625 8.93359375 7.09765625 C7.28359375 7.42765625 5.63359375 7.75765625 3.93359375 8.09765625 C3.60359375 7.43765625 3.27359375 6.77765625 2.93359375 6.09765625 C0.4062614 5.44210506 0.4062614 5.44210506 -2.06640625 5.09765625 C-2.62890625 3.16015625 -2.62890625 3.16015625 -3.06640625 1.09765625 C-2.06640625 0.09765625 -2.06640625 0.09765625 0 0 Z " fill="#EFBD6C" transform="translate(232.06640625,25.90234375)"/>
<path d="M0 0 C1.32 0 2.64 0 4 0 C4 0.66 4 1.32 4 2 C3.34 2.66 2.68 3.32 2 4 C2 4.66 2 5.32 2 6 C2.99 6.33 3.98 6.66 5 7 C5 4.69 5 2.38 5 0 C6.32 0.33 7.64 0.66 9 1 C8.34 3.97 7.68 6.94 7 10 C5.35 10 3.7 10 2 10 C2 11.32 2 12.64 2 14 C1.34 14 0.68 14 0 14 C0 9.38 0 4.76 0 0 Z " fill="#E7BD6B" transform="translate(21,158)"/>
<path d="M0 0 C1.98 0 3.96 0 6 0 C6 1.32 6 2.64 6 4 C7.32 3.67 8.64 3.34 10 3 C10.33 3.66 10.66 4.32 11 5 C10.34 5 9.68 5 9 5 C9 6.98 9 8.96 9 11 C7.02 11.66 5.04 12.32 3 13 C3.33 11.68 3.66 10.36 4 9 C4.99 9 5.98 9 7 9 C7 8.34 7 7.68 7 7 C6.01 7 5.02 7 4 7 C4 6.01 4 5.02 4 4 C2.68 3.67 1.36 3.34 0 3 C0 2.01 0 1.02 0 0 Z " fill="#E0AE5E" transform="translate(221,157)"/>
<path d="M0 0 C-0.11351517 1.81325551 -0.24112961 3.62563357 -0.375 5.4375 C-0.44460937 6.44683594 -0.51421875 7.45617187 -0.5859375 8.49609375 C-0.72257812 9.32238281 -0.85921875 10.14867187 -1 11 C-1.99 11.495 -1.99 11.495 -3 12 C-3 10.68 -3 9.36 -3 8 C-3.66 8 -4.32 8 -5 8 C-5 7.01 -5 6.02 -5 5 C-5.66 5 -6.32 5 -7 5 C-7.33 5.66 -7.66 6.32 -8 7 C-7.625 4.0625 -7.625 4.0625 -7 1 C-4.53721199 -0.231394 -2.7204945 -0.07159196 0 0 Z " fill="#EFBD6A" transform="translate(27,263)"/>
<path d="M0 0 C1.65 0.33 3.3 0.66 5 1 C5 2.65 5 4.3 5 6 C3.68 5.67 2.36 5.34 1 5 C0.67 5.99 0.34 6.98 0 8 C-0.99 8.33 -1.98 8.66 -3 9 C-4.5 7.75 -4.5 7.75 -6 6 C-6 4.68 -6 3.36 -6 2 C-3.525 2.495 -3.525 2.495 -1 3 C-0.67 2.01 -0.34 1.02 0 0 Z " fill="#E6BC6B" transform="translate(81,390)"/>
<path d="M0 0 C1.32 0.66 2.64 1.32 4 2 C3.814375 2.763125 3.62875 3.52625 3.4375 4.3125 C2.77180827 7.08967375 2.77180827 7.08967375 4 10 C3.67 10.66 3.34 11.32 3 12 C1.02 12 -0.96 12 -3 12 C-3.33 9.36 -3.66 6.72 -4 4 C-3.67 4.99 -3.34 5.98 -3 7 C-2.34 7 -1.68 7 -1 7 C-1 6.34 -1 5.68 -1 5 C-0.34 5 0.32 5 1 5 C0.67 3.35 0.34 1.7 0 0 Z " fill="#E9BD6D" transform="translate(55,375)"/>
<path d="M0 0 C0.66 0 1.32 0 2 0 C2.66 1.65 3.32 3.3 4 5 C3.01 5 2.02 5 1 5 C0.67 6.32 0.34 7.64 0 9 C-0.66 8.67 -1.32 8.34 -2 8 C-2.33 8.99 -2.66 9.98 -3 11 C-3.33 10.01 -3.66 9.02 -4 8 C-5.98 8.99 -5.98 8.99 -8 10 C-7.875 8.1875 -7.875 8.1875 -7 6 C-5.01679982 4.96708324 -3.01652194 3.9662501 -1 3 C-0.67 2.01 -0.34 1.02 0 0 Z " fill="#D8AF5C" transform="translate(153,195)"/>
<path d="M0 0 C0.66 0.33 1.32 0.66 2 1 C2.625 4.0625 2.625 4.0625 3 7 C2.01 7.33 1.02 7.66 0 8 C0 7.34 0 6.68 0 6 C-1.98 6.99 -1.98 6.99 -4 8 C-4 9.32 -4 10.64 -4 12 C-4.66 12 -5.32 12 -6 12 C-6 9.03 -6 6.06 -6 3 C-5.195625 2.87625 -4.39125 2.7525 -3.5625 2.625 C-2.716875 2.41875 -1.87125 2.2125 -1 2 C-0.67 1.34 -0.34 0.68 0 0 Z " fill="#EABE6D" transform="translate(92,280)"/>
<path d="M0 0 C2.89932357 2.39509338 3.50168276 4.31245243 4 8 C0.33694766 8.74926071 -2.42355152 9.2380014 -6 8 C-6 6.35 -6 4.7 -6 3 C-1.25 4.875 -1.25 4.875 1 6 C0.34 4.35 -0.32 2.7 -1 1 C-0.67 0.67 -0.34 0.34 0 0 Z " fill="#EABE6D" transform="translate(256,456)"/>
<path d="M0 0 C1.12758089 3.38274266 0.81750262 4.76778223 0.0625 8.1875 C-0.13214844 9.08855469 -0.32679688 9.98960937 -0.52734375 10.91796875 C-0.68332031 11.60503906 -0.83929688 12.29210937 -1 13 C-5.8 10.53846154 -5.8 10.53846154 -6.8125 7.8125 C-6.874375 7.214375 -6.93625 6.61625 -7 6 C-5.35 6 -3.7 6 -2 6 C-1.855625 5.195625 -1.71125 4.39125 -1.5625 3.5625 C-1 1 -1 1 0 0 Z " fill="#E5BB6C" transform="translate(259,266)"/>
<path d="M0 0 C0.66 0 1.32 0 2 0 C1.67 3.63 1.34 7.26 1 11 C0.34 10.01 -0.32 9.02 -1 8 C-3.56282742 7.27034634 -3.56282742 7.27034634 -6 7 C-6.33 7.66 -6.66 8.32 -7 9 C-7.99 9 -8.98 9 -10 9 C-10 7.68 -10 6.36 -10 5 C-6.42355152 3.7619986 -3.66305234 4.25073929 0 5 C0 3.35 0 1.7 0 0 Z " fill="#DFAE5E" transform="translate(195,263)"/>
<path d="M0 0 C0.33 0 0.66 0 1 0 C1.33 1.98 1.66 3.96 2 6 C2.66 5.67 3.32 5.34 4 5 C3.67 7.97 3.34 10.94 3 14 C1.66666667 14 0.33333333 14 -1 14 C-1.02685938 11.85423363 -1.04633088 9.70837355 -1.0625 7.5625 C-1.07410156 6.36753906 -1.08570312 5.17257812 -1.09765625 3.94140625 C-1 1 -1 1 0 0 Z " fill="#EBBE6E" transform="translate(87,320)"/>
<path d="M0 0 C2.31 0.66 4.62 1.32 7 2 C7 2.66 7 3.32 7 4 C6.01 4.33 5.02 4.66 4 5 C3.34 5.66 2.68 6.32 2 7 C0.66666667 7.33333333 -0.66666667 7.66666667 -2 8 C-2.66 8.66 -3.32 9.32 -4 10 C-4.66 9.01 -5.32 8.02 -6 7 C-5.071875 6.6596875 -5.071875 6.6596875 -4.125 6.3125 C-1.38589791 4.62070165 -0.94975528 3.00755839 0 0 Z " fill="#D7AE5B" transform="translate(229,478)"/>
<path d="M0 0 C0.99 0 1.98 0 3 0 C3.66 2.31 4.32 4.62 5 7 C2.36 7 -0.28 7 -3 7 C-3.33 6.01 -3.66 5.02 -4 4 C-3.34 3.01 -2.68 2.02 -2 1 C-1.34 1.33 -0.68 1.66 0 2 C0 1.34 0 0.68 0 0 Z " fill="#E4B469" transform="translate(276,194)"/>
<path d="M0 0 C1.32 0.33 2.64 0.66 4 1 C4 1.66 4 2.32 4 3 C4.66 3 5.32 3 6 3 C5.67 5.64 5.34 8.28 5 11 C2.525 10.01 2.525 10.01 0 9 C0 6.03 0 3.06 0 0 Z " fill="#E9BF6E" transform="translate(61,376)"/>
<path d="M0 0 C0.33 0.66 0.66 1.32 1 2 C1.66 2 2.32 2 3 2 C3.33 4.31 3.66 6.62 4 9 C2.02 9 0.04 9 -2 9 C-2.33 7.35 -2.66 5.7 -3 4 C-2.01 4 -1.02 4 0 4 C0 2.68 0 1.36 0 0 Z " fill="#EEC273" transform="translate(115,408)"/>
<path d="M0 0 C0.33 0.66 0.66 1.32 1 2 C3.52733235 2.65555119 3.52733235 2.65555119 6 3 C6 3.99 6 4.98 6 6 C5.01 6 4.02 6 3 6 C3.2784375 7.175625 3.2784375 7.175625 3.5625 8.375 C4 11 4 11 3 13 C2.34 13 1.68 13 1 13 C1.020625 12.154375 1.04125 11.30875 1.0625 10.4375 C0.99783768 6.88107223 0.5614504 3.50906497 0 0 Z " fill="#EDBC69" transform="translate(422,338)"/>
<path d="M0 0 C0.66 0 1.32 0 2 0 C2 0.66 2 1.32 2 2 C2.66 2 3.32 2 4 2 C4 3.32 4 4.64 4 6 C3.34 6 2.68 6 2 6 C1.67 6.99 1.34 7.98 1 9 C0.34 9 -0.32 9 -1 9 C-1.33 9.99 -1.66 10.98 -2 12 C-2.66 11.67 -3.32 11.34 -4 11 C-3.625 9.0625 -3.625 9.0625 -3 7 C-2.34 6.67 -1.68 6.34 -1 6 C-0.34227572 2.97065509 -0.34227572 2.97065509 0 0 Z " fill="#EDBC6C" transform="translate(243,30)"/>
<path d="M0 0 C0.33 1.32 0.66 2.64 1 4 C1.66 4 2.32 4 3 4 C2.25 8.75 2.25 8.75 0 11 C-0.33 10.01 -0.66 9.02 -1 8 C-1.66 8 -2.32 8 -3 8 C-3.75 6.25 -3.75 6.25 -4 4 C-2.0625 1.75 -2.0625 1.75 0 0 Z " fill="#E0B35E" transform="translate(262,454)"/>
<path d="M0 0 C0.99 0.33 1.98 0.66 3 1 C3 2.32 3 3.64 3 5 C3.66 5 4.32 5 5 5 C5.33 6.98 5.66 8.96 6 11 C5.34 11 4.68 11 4 11 C4 11.99 4 12.98 4 14 C3.34 14 2.68 14 2 14 C2.33 11.69 2.66 9.38 3 7 C2.01 7 1.02 7 0 7 C0 4.69 0 2.38 0 0 Z " fill="#EABB6A" transform="translate(416,275)"/>
<path d="M0 0 C0.33 0.99 0.66 1.98 1 3 C3.01508358 3.73323796 3.01508358 3.73323796 5 4 C5 4.66 5 5.32 5 6 C4.01 6 3.02 6 2 6 C1.67 6.99 1.34 7.98 1 9 C-0.32 8.67 -1.64 8.34 -3 8 C-3 6.02 -3 4.04 -3 2 C-2.01 2 -1.02 2 0 2 C0 1.34 0 0.68 0 0 Z " fill="#EABB6B" transform="translate(246,464)"/>
<path d="M0 0 C1.485 0.99 1.485 0.99 3 2 C3 2.66 3 3.32 3 4 C3.66 4 4.32 4 5 4 C5 4.66 5 5.32 5 6 C5.99 6.33 6.98 6.66 8 7 C7.01 7 6.02 7 5 7 C5 7.66 5 8.32 5 9 C2.83125748 8.49396008 1.00032373 8.00016187 -1 7 C-0.67 4.69 -0.34 2.38 0 0 Z " fill="#EFBD6C" transform="translate(293,56)"/>
<path d="M0 0 C0.66 0.33 1.32 0.66 2 1 C1.74438677 3.3431213 1.40729228 5.67843403 1 8 C-1 9 -1 9 -4.125 8.0625 C-5.07375 7.711875 -6.0225 7.36125 -7 7 C-7 6.01 -7 5.02 -7 4 C-5.68 3.67 -4.36 3.34 -3 3 C-3 3.66 -3 4.32 -3 5 C-2.34 5 -1.68 5 -1 5 C-1.33 3.68 -1.66 2.36 -2 1 C-1.34 0.67 -0.68 0.34 0 0 Z " fill="#D8AB5B" transform="translate(203,27)"/>
<path d="M0 0 C2.97 0.495 2.97 0.495 6 1 C7.15941038 4.47823115 6.70820884 6.45895578 6 10 C5.01 9.34 4.02 8.68 3 8 C3.33 7.34 3.66 6.68 4 6 C3.34 6 2.68 6 2 6 C2 5.34 2 4.68 2 4 C2.66 4 3.32 4 4 4 C4 3.34 4 2.68 4 2 C2.02 2.99 2.02 2.99 0 4 C0 2.68 0 1.36 0 0 Z " fill="#D8AC5B" transform="translate(128,424)"/>
<path d="M0 0 C5.53846154 0.49230769 5.53846154 0.49230769 7.875 3.0625 C8.431875 4.0215625 8.431875 4.0215625 9 5 C2.25 6.125 2.25 6.125 0 5 C0 3.35 0 1.7 0 0 Z " fill="#CFA657" transform="translate(419,240)"/>
<path d="M0 0 C0 1.65 0 3.3 0 5 C-1.32 5 -2.64 5 -4 5 C-4.66 6.32 -5.32 7.64 -6 9 C-6.66 9 -7.32 9 -8 9 C-8 8.34 -8 7.68 -8 7 C-8.66 6.34 -9.32 5.68 -10 5 C-9.01 5 -8.02 5 -7 5 C-7 4.34 -7 3.68 -7 3 C-1.125 0 -1.125 0 0 0 Z " fill="#D6AD5F" transform="translate(174,184)"/>
<path d="M0 0 C4.21912747 0.4794463 6.79663178 1.16625119 10 4 C9.01 4 8.02 4 7 4 C6.34 5.32 5.68 6.64 5 8 C3 5 3 5 3 3 C2.01 2.67 1.02 2.34 0 2 C0 1.34 0 0.68 0 0 Z " fill="#D9AA56" transform="translate(266,43)"/>
<path d="M0 0 C-0.33 2.31 -0.66 4.62 -1 7 C-1.66 6.01 -2.32 5.02 -3 4 C-3.99 4 -4.98 4 -6 4 C-8.1875 3 -8.1875 3 -10 2 C-10 1.67 -10 1.34 -10 1 C-6.56484998 0.37542727 -3.50935186 0 0 0 Z " fill="#E5BD6E" transform="translate(223,479)"/>
<path d="M0 0 C0.99 0 1.98 0 3 0 C2.67 1.32 2.34 2.64 2 4 C2.99 4 3.98 4 5 4 C5 4.66 5 5.32 5 6 C3.02 6.99 1.04 7.98 -1 9 C-1.09765625 2.84765625 -1.09765625 2.84765625 -1 1 C-0.67 0.67 -0.34 0.34 0 0 Z " fill="#F1BF6F" transform="translate(297,438)"/>
<path d="M0 0 C2 1 2 1 3 2 C4.4540625 2.2165625 4.4540625 2.2165625 5.9375 2.4375 C9 3 9 3 11 5 C9.58566794 5.2236337 8.16832382 5.42826476 6.75 5.625 C5.96109375 5.74101562 5.1721875 5.85703125 4.359375 5.9765625 C1.67847541 6.00319395 0.27305911 5.36592084 -2 4 C-1.34 2.68 -0.68 1.36 0 0 Z " fill="#E4B968" transform="translate(350,231)"/>
<path d="M0 0 C1.65 0 3.3 0 5 0 C5.33 2.31 5.66 4.62 6 7 C4.35 6.67 2.7 6.34 1 6 C0.67 4.02 0.34 2.04 0 0 Z " fill="#DBB15E" transform="translate(241,174)"/>
<path d="M0 0 C1.32 0 2.64 0 4 0 C4 3.3 4 6.6 4 10 C3.01 10 2.02 10 1 10 C1.020625 9.0925 1.04125 8.185 1.0625 7.25 C1.0110245 4.57327412 0.7784983 2.53011948 0 0 Z " fill="#E7BB6B" transform="translate(97,287)"/>
<path d="M0 0 C-0.66 1.65 -1.32 3.3 -2 5 C-2.66 5 -3.32 5 -4 5 C-4 5.66 -4 6.32 -4 7 C-4.66 7 -5.32 7 -6 7 C-6.33 7.66 -6.66 8.32 -7 9 C-7.33 7.35 -7.66 5.7 -8 4 C-7.34 4 -6.68 4 -6 4 C-5.67 3.01 -5.34 2.02 -5 1 C-5 1.66 -5 2.32 -5 3 C-4.54625 2.505 -4.0925 2.01 -3.625 1.5 C-2 0 -2 0 0 0 Z " fill="#E4BA69" transform="translate(27,192)"/>
<path d="M0 0 C0 0.66 0 1.32 0 2 C0.66 2 1.32 2 2 2 C1.67 3.32 1.34 4.64 1 6 C-0.65 6 -2.3 6 -4 6 C-4.33 5.01 -4.66 4.02 -5 3 C-2.25 0 -2.25 0 0 0 Z " fill="#F2BE6F" transform="translate(276,380)"/>
<path d="M0 0 C0.33 0.99 0.66 1.98 1 3 C1.66 3.33 2.32 3.66 3 4 C-0.90028225 6.60018816 -4.47434569 6.15085514 -9 6 C-7.1875 4.4375 -7.1875 4.4375 -5 3 C-4.01 3.33 -3.02 3.66 -2 4 C-2 3.01 -2 2.02 -2 1 C-1.34 0.67 -0.68 0.34 0 0 Z " fill="#EEC273" transform="translate(212,247)"/>
<path d="M0 0 C1.32 0 2.64 0 4 0 C4.66 2.97 5.32 5.94 6 9 C5.01 8.01 4.02 7.02 3 6 C2.01 5.67 1.02 5.34 0 5 C0 3.35 0 1.7 0 0 Z " fill="#D9AC5B" transform="translate(28,153)"/>
<path d="M0 0 C0.33 0.66 0.66 1.32 1 2 C0.0625 4.125 0.0625 4.125 -1 6 C-1.66 6 -2.32 6 -3 6 C-3 6.99 -3 7.98 -3 9 C-3.66 9 -4.32 9 -5 9 C-5 8.01 -5 7.02 -5 6 C-6.32 5.67 -7.64 5.34 -9 5 C-5.91190305 3.23537317 -4.76687864 3 -1 3 C-0.67 2.01 -0.34 1.02 0 0 Z " fill="#D9AA59" transform="translate(77,101)"/>
<path d="M0 0 C0.66 0 1.32 0 2 0 C2.33 0.99 2.66 1.98 3 3 C3.66 2.67 4.32 2.34 5 2 C4.67 3.65 4.34 5.3 4 7 C3.01 7 2.02 7 1 7 C1 6.01 1 5.02 1 4 C-0.32 4.33 -1.64 4.66 -3 5 C-2.67 4.01 -2.34 3.02 -2 2 C-1.34 2.33 -0.68 2.66 0 3 C0 2.01 0 1.02 0 0 Z " fill="#ECC275" transform="translate(358,286)"/>
<path d="M0 0 C0 0.99 0 1.98 0 3 C-1.32 3.33 -2.64 3.66 -4 4 C-4.91058531 7.07322544 -5.08886184 9.80097361 -5 13 C-7.10364211 9.84453684 -7.26411176 9.43912739 -6.8125 5.9375 C-6.73644531 5.24527344 -6.66039062 4.55304688 -6.58203125 3.83984375 C-5.48704192 0.37850164 -3.3415944 0 0 0 Z " fill="#D2A65B" transform="translate(187,264)"/>
<path d="M0 0 C0 0.99 0 1.98 0 3 C-1.32 3 -2.64 3 -4 3 C-4.33 3.99 -4.66 4.98 -5 6 C-5.99 6 -6.98 6 -8 6 C-7.1875 3.0625 -7.1875 3.0625 -6 0 C-3 -1 -3 -1 0 0 Z " fill="#D0AE57" transform="translate(94,233)"/>
<path d="M0 0 C0.33 0.99 0.66 1.98 1 3 C1.66 3.33 2.32 3.66 3 4 C-0.75 7 -0.75 7 -3 7 C-4.625 5 -4.625 5 -6 3 C-4.02 2.01 -2.04 1.02 0 0 Z " fill="#E8B369" transform="translate(287,53)"/>
<path d="M0 0 C0.66 0 1.32 0 2 0 C2.33 0.66 2.66 1.32 3 2 C3.99 1.67 4.98 1.34 6 1 C6.33 1.99 6.66 2.98 7 4 C3.25 7 3.25 7 1 7 C0.67 4.69 0.34 2.38 0 0 Z " fill="#F2C274" transform="translate(276,340)"/>
<path d="M0 0 C0.99 0.33 1.98 0.66 3 1 C3 1.66 3 2.32 3 3 C4.32 2.67 5.64 2.34 7 2 C7.33 3.65 7.66 5.3 8 7 C4.84859577 6.65930765 3.39218439 6.41923159 1.1875 4.0625 C0 2 0 2 0 0 Z " fill="#DCAA5D" transform="translate(231,170)"/>
<path d="M0 0 C0.33 0.99 0.66 1.98 1 3 C-0.96466413 4.06775224 -2.96855359 5.06553465 -5 6 C-5.66 5.67 -6.32 5.34 -7 5 C-6.1875 3.0625 -6.1875 3.0625 -5 1 C-2 0 -2 0 0 0 Z " fill="#E9BD6E" transform="translate(185,193)"/>
<path d="M0 0 C1.65 0 3.3 0 5 0 C5 0.66 5 1.32 5 2 C4.34 2 3.68 2 3 2 C3.33 3.32 3.66 4.64 4 6 C1.03 5.505 1.03 5.505 -2 5 C-2 4.34 -2 3.68 -2 3 C-1.34 3 -0.68 3 0 3 C0 2.01 0 1.02 0 0 Z " fill="#F1BE6E" transform="translate(176,46)"/>
<path d="M0 0 C0.66 0.33 1.32 0.66 2 1 C0.85408512 4.43774463 0.04311402 5.17413159 -3 7 C-4.32 7 -5.64 7 -7 7 C-7 6.34 -7 5.68 -7 5 C-5.46875 3.7109375 -5.46875 3.7109375 -3.5 2.375 C-2.8503125 1.92898437 -2.200625 1.48296875 -1.53125 1.0234375 C-1.0259375 0.68570313 -0.520625 0.34796875 0 0 Z " fill="#CFAA5A" transform="translate(325,214)"/>
<path d="M0 0 C0.598125 0.309375 1.19625 0.61875 1.8125 0.9375 C4.08956772 2.10209704 4.08956772 2.10209704 7 3 C6.34 5.31 5.68 7.62 5 10 C4.34 10 3.68 10 3 10 C3.0928125 8.576875 3.0928125 8.576875 3.1875 7.125 C3.125625 6.09375 3.06375 5.0625 3 4 C2.01 3.34 1.02 2.68 0 2 C0 1.34 0 0.68 0 0 Z " fill="#D9AC5A" transform="translate(284,189)"/>
<path d="M0 0 C0.99 0.33 1.98 0.66 3 1 C3 1.99 3 2.98 3 4 C2.34 4 1.68 4 1 4 C0.71125 4.61875 0.4225 5.2375 0.125 5.875 C-1 8 -1 8 -3 10 C-2.39009109 6.44219804 -1.4216319 3.3171411 0 0 Z " fill="#F1BF72" transform="translate(189,182)"/>
<path d="M0 0 C-0.33 1.65 -0.66 3.3 -1 5 C-1.66 5 -2.32 5 -3 5 C-3 5.99 -3 6.98 -3 8 C-3.66 8 -4.32 8 -5 8 C-4.74438677 5.6568787 -4.40729228 3.32156597 -4 1 C-2 0 -2 0 0 0 Z " fill="#D7AD5D" transform="translate(429,146)"/>
<path d="M0 0 C0.33 0.66 0.66 1.32 1 2 C1.66 2 2.32 2 3 2 C3 3.65 3 5.3 3 7 C3.66 7.33 4.32 7.66 5 8 C4.67 8.99 4.34 9.98 4 11 C3.01 10.67 2.02 10.34 1 10 C0.67 6.7 0.34 3.4 0 0 Z " fill="#D5A959" transform="translate(28,272)"/>
<path d="M0 0 C0.66 0 1.32 0 2 0 C2.99 2.64 3.98 5.28 5 8 C3.02 8.33 1.04 8.66 -1 9 C-0.67 6.03 -0.34 3.06 0 0 Z " fill="#EEBD6E" transform="translate(89,256)"/>
<path d="M0 0 C1.98 0 3.96 0 6 0 C6.33 1.98 6.66 3.96 7 6 C2.25 4.125 2.25 4.125 0 3 C0 2.01 0 1.02 0 0 Z " fill="#D4A858" transform="translate(221,157)"/>
<path d="M0 0 C1.65 0 3.3 0 5 0 C5.33 0.99 5.66 1.98 6 3 C5.34 3.66 4.68 4.32 4 5 C3.01 5 2.02 5 1 5 C0.67 3.35 0.34 1.7 0 0 Z " fill="#DEAB5B" transform="translate(401,376)"/>
<path d="M0 0 C1.9375 0.75 1.9375 0.75 4 2 C4.75 4.125 4.75 4.125 5 6 C4.01 6 3.02 6 2 6 C2 5.01 2 4.02 2 3 C0.35 3.66 -1.3 4.32 -3 5 C-2.01 3.35 -1.02 1.7 0 0 Z " fill="#E7BB6D" transform="translate(94,365)"/>
<path d="M0 0 C1.32 0.33 2.64 0.66 4 1 C3.67 2.65 3.34 4.3 3 6 C2.34 6 1.68 6 1 6 C1 6.66 1 7.32 1 8 C0.01 8 -0.98 8 -2 8 C-2 7.34 -2 6.68 -2 6 C-1.34 5.67 -0.68 5.34 0 5 C0 3.35 0 1.7 0 0 Z " fill="#EABC6D" transform="translate(426,192)"/>
<path d="M0 0 C0.33 0.99 0.66 1.98 1 3 C0.34 3 -0.32 3 -1 3 C-1 3.99 -1 4.98 -1 6 C-2.65 5.67 -4.3 5.34 -6 5 C-3.74193548 0 -3.74193548 0 0 0 Z " fill="#D2A256" transform="translate(222,17)"/>
<path d="M0 0 C0 1.32 0 2.64 0 4 C-2.31 4 -4.62 4 -7 4 C-7 3.34 -7 2.68 -7 2 C-4.35261084 0.5393715 -3.10551666 0 0 0 Z " fill="#EDBC6B" transform="translate(255,452)"/>
<path d="M0 0 C1.32 0.33 2.64 0.66 4 1 C4 2.65 4 4.3 4 6 C3.01 6.495 3.01 6.495 2 7 C0 4 0 4 0 0 Z " fill="#DCAE61" transform="translate(273,328)"/>
<path d="M0 0 C2.31 0.33 4.62 0.66 7 1 C7 1.66 7 2.32 7 3 C6.34 3 5.68 3 5 3 C5 3.66 5 4.32 5 5 C5.66 5 6.32 5 7 5 C7 5.99 7 6.98 7 8 C6.34 8 5.68 8 5 8 C2 3.61538462 2 3.61538462 2 1 C1.34 0.67 0.68 0.34 0 0 Z " fill="#D6A95A" transform="translate(279,284)"/>
<path d="M0 0 C1.32 0 2.64 0 4 0 C3.67 2.97 3.34 5.94 3 9 C2.67 7.68 2.34 6.36 2 5 C1.34 5 0.68 5 0 5 C0 3.35 0 1.7 0 0 Z " fill="#E7B767" transform="translate(110,222)"/>
<path d="M0 0 C2.64 0.33 5.28 0.66 8 1 C8 1.99 8 2.98 8 4 C5.69 4.33 3.38 4.66 1 5 C0.67 3.35 0.34 1.7 0 0 Z " fill="#EDBA6E" transform="translate(237,169)"/>
<path d="M0 0 C0.66 0 1.32 0 2 0 C2.33 1.98 2.66 3.96 3 6 C1.68 6.33 0.36 6.66 -1 7 C-0.67 4.69 -0.34 2.38 0 0 Z " fill="#EDBF6F" transform="translate(177,403)"/>
<path d="M0 0 C1.32 0 2.64 0 4 0 C4.33 1.65 4.66 3.3 5 5 C3.68 5.33 2.36 5.66 1 6 C0.67 4.02 0.34 2.04 0 0 Z " fill="#EFC26F" transform="translate(355,322)"/>
<path d="M0 0 C0.99 0 1.98 0 3 0 C2.34 2.64 1.68 5.28 1 8 C0.34 8 -0.32 8 -1 8 C-1.125 2.25 -1.125 2.25 0 0 Z " fill="#D4AC5C" transform="translate(20,188)"/>
<path d="M0 0 C2.475 0.99 2.475 0.99 5 2 C4.01 2.495 4.01 2.495 3 3 C3 3.99 3 4.98 3 6 C1.68 5.67 0.36 5.34 -1 5 C-0.67 3.35 -0.34 1.7 0 0 Z " fill="#D8AC5F" transform="translate(379,117)"/>
<path d="M0 0 C0 0.66 0 1.32 0 2 C-2.95481492 4.74375671 -3.77471908 5 -8 5 C-8 4.34 -8 3.68 -8 3 C-5.09451118 0.95830515 -3.59857954 0 0 0 Z " fill="#EDBC6E" transform="translate(111,99)"/>
<path d="M0 0 C0.66 0.33 1.32 0.66 2 1 C1.67 3.31 1.34 5.62 1 8 C0.34 8 -0.32 8 -1 8 C-1.66 6.02 -2.32 4.04 -3 2 C-2.01 1.34 -1.02 0.68 0 0 Z " fill="#DBAE5A" transform="translate(257,36)"/>
<path d="M0 0 C2.475 0.99 2.475 0.99 5 2 C3.6875 4.5 3.6875 4.5 2 7 C1.01 7 0.02 7 -1 7 C-1 6.34 -1 5.68 -1 5 C-0.01 5 0.98 5 2 5 C2 4.01 2 3.02 2 2 C1.01 1.67 0.02 1.34 -1 1 C-0.67 0.67 -0.34 0.34 0 0 Z " fill="#DEB366" transform="translate(166,435)"/>
<path d="M0 0 C0.33 0 0.66 0 1 0 C1 1.98 1 3.96 1 6 C1.66 6.33 2.32 6.66 3 7 C2.01 8.485 2.01 8.485 1 10 C0.01 9.67 -0.98 9.34 -2 9 C-1.51421457 5.87709365 -1.0013988 3.00419641 0 0 Z " fill="#DAAC59" transform="translate(95,401)"/>
<path d="M0 0 C0.33 0 0.66 0 1 0 C1.33 2.97 1.66 5.94 2 9 C0.68 8.01 -0.64 7.02 -2 6 C-1.125 1.125 -1.125 1.125 0 0 Z " fill="#D6AC5D" transform="translate(94,328)"/>
<path d="M0 0 C1.32 0.33 2.64 0.66 4 1 C4 2.32 4 3.64 4 5 C3.34 5.66 2.68 6.32 2 7 C1.34 6.67 0.68 6.34 0 6 C0 4.02 0 2.04 0 0 Z " fill="#E1B364" transform="translate(277,283)"/>
<path d="M0 0 C3.875 2.625 3.875 2.625 5 6 C2.625 5.75 2.625 5.75 0 5 C-1.3125 2.9375 -1.3125 2.9375 -2 1 C-1.34 0.67 -0.68 0.34 0 0 Z " fill="#F0BC66" transform="translate(279,278)"/>
<path d="M0 0 C0.99 0.33 1.98 0.66 3 1 C2.34 3.31 1.68 5.62 1 8 C-0.4606285 5.35261084 -1 4.10551666 -1 1 C-0.67 0.67 -0.34 0.34 0 0 Z M-2 8 C0 9 0 9 0 9 Z " fill="#E5B969" transform="translate(425,278)"/>
<path d="M0 0 C0.66 0 1.32 0 2 0 C2 1.98 2 3.96 2 6 C-0.31 5.34 -2.62 4.68 -5 4 C-4.34 3.34 -3.68 2.68 -3 2 C-2.01 2 -1.02 2 0 2 C0 1.34 0 0.68 0 0 Z " fill="#EEC074" transform="translate(223,240)"/>
<path d="M0 0 C0.99 0 1.98 0 3 0 C3.33 1.98 3.66 3.96 4 6 C3.01 6.33 2.02 6.66 1 7 C-0.0625 4.625 -0.0625 4.625 -1 2 C-0.67 1.34 -0.34 0.68 0 0 Z " fill="#D3AF60" transform="translate(421,198)"/>
<path d="M0 0 C2 2 2 2 2 5 C0.68 5.33 -0.64 5.66 -2 6 C-2.33 5.01 -2.66 4.02 -3 3 C-2.01 2.01 -1.02 1.02 0 0 Z " fill="#E7BB6C" transform="translate(426,138)"/>
<path d="M0 0 C1.32 0.33 2.64 0.66 4 1 C3.34 1 2.68 1 2 1 C2.33 1.99 2.66 2.98 3 4 C2.67 4.99 2.34 5.98 2 7 C0.68 6.67 -0.64 6.34 -2 6 C-1.67 5.38125 -1.34 4.7625 -1 4.125 C0.14193235 2.08981656 0.14193235 2.08981656 0 0 Z " fill="#F0C36F" transform="translate(317,413)"/>
<path d="M0 0 C0.99 0 1.98 0 3 0 C3 1.32 3 2.64 3 4 C2.34 4 1.68 4 1 4 C0.67 4.99 0.34 5.98 0 7 C-0.66 7 -1.32 7 -2 7 C-1.34 4.69 -0.68 2.38 0 0 Z " fill="#DFB261" transform="translate(274,359)"/>
<path d="M0 0 C0.33 2.31 0.66 4.62 1 7 C0.01 7 -0.98 7 -2 7 C-2.66 5.35 -3.32 3.7 -4 2 C-1 0 -1 0 0 0 Z " fill="#EABE6C" transform="translate(201,254)"/>
<path d="M0 0 C1.4606285 2.64738916 2 3.89448334 2 7 C0.35 7 -1.3 7 -3 7 C-2.01 4.69 -1.02 2.38 0 0 Z " fill="#EABC6F" transform="translate(278,194)"/>
<path d="M0 0 C0.99 0.33 1.98 0.66 3 1 C3 2.98 3 4.96 3 7 C2.01 6.67 1.02 6.34 0 6 C0 4.02 0 2.04 0 0 Z " fill="#EEBD6C" transform="translate(291,437)"/>
<path d="M0 0 C0 1.98 0 3.96 0 6 C-0.99 6.495 -0.99 6.495 -2 7 C-2 6.01 -2 5.02 -2 4 C-2.66 4 -3.32 4 -4 4 C-4 3.01 -4 2.02 -4 1 C-1 0 -1 0 0 0 Z " fill="#D7AE5D" transform="translate(174,331)"/>
<path d="M0 0 C-0.66 1.32 -1.32 2.64 -2 4 C-3.65 3.67 -5.3 3.34 -7 3 C-7 2.34 -7 1.68 -7 1 C-4 0 -4 0 0 0 Z " fill="#E9BF6F" transform="translate(245,253)"/>
<path d="M0 0 C0.33 0 0.66 0 1 0 C1.28875 0.969375 1.5775 1.93875 1.875 2.9375 C2.64214682 6.10664203 2.64214682 6.10664203 5 7 C4.67 7.66 4.34 8.32 4 9 C2.0625 8.3125 2.0625 8.3125 0 7 C-0.93580311 4.12060581 -1.37245106 2.74490212 0 0 Z " fill="#EBBB6A" transform="translate(210,169)"/>
<path d="M0 0 C0.33 0 0.66 0 1 0 C1 1.65 1 3.3 1 5 C0.34 5 -0.32 5 -1 5 C-0.67 5.99 -0.34 6.98 0 8 C-0.99 7.67 -1.98 7.34 -3 7 C-1.125 1.125 -1.125 1.125 0 0 Z " fill="#EEC06F" transform="translate(40,134)"/>
<path d="M0 0 C1.9375 0.8125 1.9375 0.8125 4 2 C4.33 2.99 4.66 3.98 5 5 C3.35 4.67 1.7 4.34 0 4 C0 2.68 0 1.36 0 0 Z " fill="#F5BF6D" transform="translate(370,112)"/>
<path d="M0 0 C0.99 0.33 1.98 0.66 3 1 C0.75 3.0625 0.75 3.0625 -2 5 C-4.3125 4.75 -4.3125 4.75 -6 4 C-6 3.34 -6 2.68 -6 2 C-4.02 2 -2.04 2 0 2 C0 1.34 0 0.68 0 0 Z " fill="#DCAB58" transform="translate(88,111)"/>
<path d="M0 0 C0.66 0 1.32 0 2 0 C2 0.99 2 1.98 2 3 C2.99 3 3.98 3 5 3 C5 4.65 5 6.3 5 8 C4.34 7.67 3.68 7.34 3 7 C3.33 6.01 3.66 5.02 4 4 C2.35 3.67 0.7 3.34 -1 3 C-0.67 2.01 -0.34 1.02 0 0 Z " fill="#E7B668" transform="translate(208,472)"/>
<path d="M0 0 C0.99 0.33 1.98 0.66 3 1 C3.33 2.65 3.66 4.3 4 6 C2.68 5.34 1.36 4.68 0 4 C0 2.68 0 1.36 0 0 Z " fill="#F0BD6A" transform="translate(188,462)"/>
<path d="M0 0 C0 2 0 2 -1.5 3.625 C-1.995 4.07875 -2.49 4.5325 -3 5 C-4.32 4.34 -5.64 3.68 -7 3 C-4.49955934 -0.00052879 -4.2621484 0 0 0 Z " fill="#D9AC5C" transform="translate(190,460)"/>
<path d="M0 0 C1.98 0.99 1.98 0.99 4 2 C3.67 3.65 3.34 5.3 3 7 C2.01 7 1.02 7 0 7 C0 4.69 0 2.38 0 0 Z " fill="#ECBC6F" transform="translate(20,317)"/>
<path d="M0 0 C0.33 0.66 0.66 1.32 1 2 C2.32 2 3.64 2 5 2 C5 2.99 5 3.98 5 5 C3.35 4.67 1.7 4.34 0 4 C0 2.68 0 1.36 0 0 Z " fill="#D8AD5E" transform="translate(350,298)"/>
<path d="M0 0 C-0.66 2.31 -1.32 4.62 -2 7 C-3.5 5.6875 -3.5 5.6875 -5 4 C-5 3.01 -5 2.02 -5 1 C-2 0 -2 0 0 0 Z " fill="#D1AA59" transform="translate(24,272)"/>
<path d="M0 0 C0.99 0.66 1.98 1.32 3 2 C1.6875 3.5 1.6875 3.5 0 5 C-0.99 5 -1.98 5 -3 5 C-3 3.68 -3 2.36 -3 1 C-2.01 0.67 -1.02 0.34 0 0 Z " fill="#E6B363" transform="translate(188,267)"/>
<path d="M0 0 C0.33 0.66 0.66 1.32 1 2 C1.99 1.67 2.98 1.34 4 1 C3.34 2.98 2.68 4.96 2 7 C1.34 6.67 0.68 6.34 0 6 C0 4.02 0 2.04 0 0 Z " fill="#D7AF5B" transform="translate(347,228)"/>
<path d="M0 0 C0.99 0.33 1.98 0.66 3 1 C2.34 1 1.68 1 1 1 C1 1.66 1 2.32 1 3 C1.66 3 2.32 3 3 3 C2.67 3.99 2.34 4.98 2 6 C1.01 6 0.02 6 -1 6 C-1.042721 4.33388095 -1.04063832 2.66617115 -1 1 C-0.67 0.67 -0.34 0.34 0 0 Z " fill="#F2C073" transform="translate(298,205)"/>
<path d="M0 0 C0.66 0.33 1.32 0.66 2 1 C1.34 2.98 0.68 4.96 0 7 C-0.33 6.34 -0.66 5.68 -1 5 C-1.66 4.67 -2.32 4.34 -3 4 C-3 3.01 -3 2.02 -3 1 C-2.01 0.67 -1.02 0.34 0 0 Z " fill="#E1BD6B" transform="translate(22,175)"/>
<path d="M0 0 C1.32 0.33 2.64 0.66 4 1 C3.01 1.495 3.01 1.495 2 2 C2 2.99 2 3.98 2 5 C0.68 4.67 -0.64 4.34 -2 4 C-1.34 2.68 -0.68 1.36 0 0 Z " fill="#CDAA5D" transform="translate(405,120)"/>
<path d="M0 0 C0 3 0 3 -2.5 5.6875 C-3.325 6.450625 -4.15 7.21375 -5 8 C-4.64950425 4.75791433 -4.43778819 3.38472296 -1.9375 1.1875 C-1.298125 0.795625 -0.65875 0.40375 0 0 Z " fill="#DAAC59" transform="translate(76,115)"/>
<path d="M0 0 C0.66 1.32 1.32 2.64 2 4 C1.01 4.66 0.02 5.32 -1 6 C-1.33 5.01 -1.66 4.02 -2 3 C-2.66 2.67 -3.32 2.34 -4 2 C-2.68 1.34 -1.36 0.68 0 0 Z " fill="#EBBF6D" transform="translate(341,85)"/>
</svg>
