<svg width="320" height="200" viewBox="0 0 320 200" fill="none" xmlns="http://www.w3.org/2000/svg">
  <rect width="320" height="200" rx="20" fill="url(#bg5)" />
  <path d="M80 86C80 71.6406 91.6406 60 106 60H214C228.359 60 240 71.6406 240 86V140C240 154.359 228.359 166 214 166H106C91.6406 166 80 154.359 80 140V86Z" fill="#FFFFFF" stroke="#1F3C8D" stroke-width="6" />
  <path d="M94 84C94 74.0589 102.059 66 112 66H208C217.941 66 226 74.0589 226 84" stroke="#1F3C8D" stroke-width="6" stroke-linecap="round" />
  <rect x="110" y="78" width="100" height="14" rx="7" fill="#1F3C8D" opacity="0.2" />
  <path d="M110 120C110 108.954 119.954 99 131 99H189C200.046 99 210 108.954 210 120C210 131.046 200.046 141 189 141H131C119.954 141 110 131.046 110 120Z" fill="url(#dates)" />
  <path d="M132 122C132 115 138 110 145 110C152 110 158 115 158 122" stroke="#5D2B1F" stroke-width="5" stroke-linecap="round" />
  <path d="M176 122C176 115 182 110 189 110C196 110 202 115 202 122" stroke="#5D2B1F" stroke-width="5" stroke-linecap="round" />
  <defs>
    <linearGradient id="bg5" x1="24" y1="16" x2="288" y2="184" gradientUnits="userSpaceOnUse">
      <stop stop-color="#EAF2FF" />
      <stop offset="1" stop-color="#F2B134" stop-opacity="0.24" />
    </linearGradient>
    <linearGradient id="dates" x1="110" y1="99" x2="210" y2="141" gradientUnits="userSpaceOnUse">
      <stop stop-color="#8A3B28" />
      <stop offset="1" stop-color="#BF5C2F" />
    </linearGradient>
  </defs>
</svg>

